# This file uses centimeters as units for non-parametric coordinates.

mtllib fullbox.mtl
g default
v 1.175801 10.928001 -5.357407
v -3.488317 2.024567 -5.667251
v -4.819195 2.608671 -2.417738
v -0.155077 11.512104 -2.107894
v 4.655577 8.907153 0.330611
v -0.008541 0.003719 0.020767
v 1.322337 -0.580384 -3.228746
v 5.986455 8.323049 -2.918902
v -3.488317 2.024567 -5.667251
v 1.322337 -0.580384 -3.228746
v -0.008541 0.003719 0.020767
v -4.819195 2.608671 -2.417738
v -0.155077 11.512104 -2.107894
v 4.655577 8.907153 0.330611
v 5.986455 8.323049 -2.918902
v 1.175801 10.928001 -5.357407
v -0.155077 11.512104 -2.107894
v -4.819195 2.608671 -2.417738
v -0.008541 0.003719 0.020767
v 4.655577 8.907153 0.330611
v 5.986455 8.323049 -2.918902
v 1.322337 -0.580384 -3.228746
v -3.488317 2.024567 -5.667251
v 1.175801 10.928001 -5.357407
vt 0.528500 0.833000
vt 0.528500 0.003300
vt 0.683200 0.003300
vt 0.683200 0.833000
vt 0.686200 0.833000
vt 0.686200 0.003300
vt 0.840900 0.003300
vt 0.840900 0.833000
vt 0.844000 0.997500
vt 0.844000 0.503300
vt 0.998700 0.503300
vt 0.998700 0.997500
vt 0.844000 0.497500
vt 0.844000 0.003300
vt 0.998700 0.003300
vt 0.998700 0.497500
vt 0.265100 0.833000
vt 0.265100 0.003300
vt 0.525400 0.003300
vt 0.525400 0.833000
vt 0.001700 0.833000
vt 0.001700 0.003300
vt 0.262000 0.003300
vt 0.262000 0.833000
vn -0.803177 0.434918 -0.407128
vn -0.803177 0.434918 -0.407128
vn -0.803177 0.434918 -0.407128
vn -0.803177 0.434918 -0.407128
vn 0.803177 -0.434918 0.407128
vn 0.803177 -0.434918 0.407128
vn 0.803177 -0.434918 0.407128
vn 0.803177 -0.434918 0.407128
vn -0.463819 -0.885394 -0.030812
vn -0.463819 -0.885394 -0.030812
vn -0.463819 -0.885394 -0.030812
vn -0.463819 -0.885394 -0.030812
vn 0.463819 0.885394 0.030812
vn 0.463819 0.885394 0.030812
vn 0.463819 0.885394 0.030812
vn 0.463819 0.885394 0.030812
vn -0.373869 0.164086 0.912851
vn -0.373869 0.164086 0.912851
vn -0.373869 0.164086 0.912851
vn -0.373869 0.164086 0.912851
vn 0.373869 -0.164086 -0.912851
vn 0.373869 -0.164086 -0.912851
vn 0.373869 -0.164086 -0.912851
vn 0.373869 -0.164086 -0.912851
s off
g Cube
usemtl CubeSG
f 1/1/1 2/2/2 3/3/3 4/4/4
f 5/5/5 6/6/6 7/7/7 8/8/8
f 9/9/9 10/10/10 11/11/11 12/12/12
f 13/13/13 14/14/14 15/15/15 16/16/16
f 17/17/17 18/18/18 19/19/19 20/20/20
f 21/21/21 22/22/22 23/23/23 24/24/24
