solid box
  facet normal 0.000000e+000 0.000000e+000 -1.000000e+000
    outer loop
      vertex -2.580758e+001 -2.191443e+001 0.000000e+000
      vertex -2.580758e+001 -1.291443e+001 0.000000e+000
      vertex -1.652187e+001 -1.291443e+001 0.000000e+000
    endloop
  endfacet
  facet normal 0.000000e+000 0.000000e+000 -1.000000e+000
    outer loop
      vertex -1.652187e+001 -1.291443e+001 0.000000e+000
      vertex -1.652187e+001 -2.191443e+001 0.000000e+000
      vertex -2.580758e+001 -2.191443e+001 0.000000e+000
    endloop
  endfacet
  facet normal 0.000000e+000 0.000000e+000 -1.000000e+000
    outer loop
      vertex -1.652187e+001 -2.191443e+001 0.000000e+000
      vertex -1.652187e+001 -1.291443e+001 0.000000e+000
      vertex -7.236151e+000 -1.291443e+001 0.000000e+000
    endloop
  endfacet
  facet normal 0.000000e+000 0.000000e+000 -1.000000e+000
    outer loop
      vertex -7.236151e+000 -1.291443e+001 0.000000e+000
      vertex -7.236151e+000 -2.191443e+001 0.000000e+000
      vertex -1.652187e+001 -2.191443e+001 0.000000e+000
    endloop
  endfacet
  facet normal 0.000000e+000 0.000000e+000 -1.000000e+000
    outer loop
      vertex -7.236151e+000 -2.191443e+001 0.000000e+000
      vertex -7.236151e+000 -1.291443e+001 0.000000e+000
      vertex 2.049563e+000 -1.291443e+001 0.000000e+000
    endloop
  endfacet
  facet normal 0.000000e+000 0.000000e+000 -1.000000e+000
    outer loop
      vertex 2.049563e+000 -1.291443e+001 0.000000e+000
      vertex 2.049563e+000 -2.191443e+001 0.000000e+000
      vertex -7.236151e+000 -2.191443e+001 0.000000e+000
    endloop
  endfacet
  facet normal 0.000000e+000 0.000000e+000 -1.000000e+000
    outer loop
      vertex 2.049563e+000 -2.191443e+001 0.000000e+000
      vertex 2.049563e+000 -1.291443e+001 0.000000e+000
      vertex 1.133528e+001 -1.291443e+001 0.000000e+000
    endloop
  endfacet
  facet normal 0.000000e+000 0.000000e+000 -1.000000e+000
    outer loop
      vertex 1.133528e+001 -1.291443e+001 0.000000e+000
      vertex 1.133528e+001 -2.191443e+001 0.000000e+000
      vertex 2.049563e+000 -2.191443e+001 0.000000e+000
    endloop
  endfacet
  facet normal 0.000000e+000 0.000000e+000 -1.000000e+000
    outer loop
      vertex 1.133528e+001 -2.191443e+001 0.000000e+000
      vertex 1.133528e+001 -1.291443e+001 0.000000e+000
      vertex 2.062099e+001 -1.291443e+001 0.000000e+000
    endloop
  endfacet
  facet normal 0.000000e+000 0.000000e+000 -1.000000e+000
    outer loop
      vertex 2.062099e+001 -1.291443e+001 0.000000e+000
      vertex 2.062099e+001 -2.191443e+001 0.000000e+000
      vertex 1.133528e+001 -2.191443e+001 0.000000e+000
    endloop
  endfacet
  facet normal 0.000000e+000 0.000000e+000 -1.000000e+000
    outer loop
      vertex 2.062099e+001 -2.191443e+001 0.000000e+000
      vertex 2.062099e+001 -1.291443e+001 0.000000e+000
      vertex 2.990670e+001 -1.291443e+001 0.000000e+000
    endloop
  endfacet
  facet normal 0.000000e+000 0.000000e+000 -1.000000e+000
    outer loop
      vertex 2.990670e+001 -1.291443e+001 0.000000e+000
      vertex 2.990670e+001 -2.191443e+001 0.000000e+000
      vertex 2.062099e+001 -2.191443e+001 0.000000e+000
    endloop
  endfacet
  facet normal 0.000000e+000 0.000000e+000 -1.000000e+000
    outer loop
      vertex 2.990670e+001 -2.191443e+001 0.000000e+000
      vertex 2.990670e+001 -1.291443e+001 0.000000e+000
      vertex 3.919242e+001 -1.291443e+001 0.000000e+000
    endloop
  endfacet
  facet normal 0.000000e+000 0.000000e+000 -1.000000e+000
    outer loop
      vertex 3.919242e+001 -1.291443e+001 0.000000e+000
      vertex 3.919242e+001 -2.191443e+001 0.000000e+000
      vertex 2.990670e+001 -2.191443e+001 0.000000e+000
    endloop
  endfacet
  facet normal 0.000000e+000 0.000000e+000 -1.000000e+000
    outer loop
      vertex -2.580758e+001 -1.291443e+001 0.000000e+000
      vertex -2.580758e+001 -3.914429e+000 0.000000e+000
      vertex -1.652187e+001 -3.914429e+000 0.000000e+000
    endloop
  endfacet
  facet normal 0.000000e+000 0.000000e+000 -1.000000e+000
    outer loop
      vertex -1.652187e+001 -3.914429e+000 0.000000e+000
      vertex -1.652187e+001 -1.291443e+001 0.000000e+000
      vertex -2.580758e+001 -1.291443e+001 0.000000e+000
    endloop
  endfacet
  facet normal 0.000000e+000 0.000000e+000 -1.000000e+000
    outer loop
      vertex -1.652187e+001 -1.291443e+001 0.000000e+000
      vertex -1.652187e+001 -3.914429e+000 0.000000e+000
      vertex -7.236151e+000 -3.914429e+000 0.000000e+000
    endloop
  endfacet
  facet normal 0.000000e+000 0.000000e+000 -1.000000e+000
    outer loop
      vertex -7.236151e+000 -3.914429e+000 0.000000e+000
      vertex -7.236151e+000 -1.291443e+001 0.000000e+000
      vertex -1.652187e+001 -1.291443e+001 0.000000e+000
    endloop
  endfacet
  facet normal 0.000000e+000 0.000000e+000 -1.000000e+000
    outer loop
      vertex -7.236151e+000 -1.291443e+001 0.000000e+000
      vertex -7.236151e+000 -3.914429e+000 0.000000e+000
      vertex 2.049563e+000 -3.914429e+000 0.000000e+000
    endloop
  endfacet
  facet normal 0.000000e+000 0.000000e+000 -1.000000e+000
    outer loop
      vertex 2.049563e+000 -3.914429e+000 0.000000e+000
      vertex 2.049563e+000 -1.291443e+001 0.000000e+000
      vertex -7.236151e+000 -1.291443e+001 0.000000e+000
    endloop
  endfacet
  facet normal 0.000000e+000 0.000000e+000 -1.000000e+000
    outer loop
      vertex 2.049563e+000 -1.291443e+001 0.000000e+000
      vertex 2.049563e+000 -3.914429e+000 0.000000e+000
      vertex 1.133528e+001 -3.914429e+000 0.000000e+000
    endloop
  endfacet
  facet normal 0.000000e+000 0.000000e+000 -1.000000e+000
    outer loop
      vertex 1.133528e+001 -3.914429e+000 0.000000e+000
      vertex 1.133528e+001 -1.291443e+001 0.000000e+000
      vertex 2.049563e+000 -1.291443e+001 0.000000e+000
    endloop
  endfacet
  facet normal 0.000000e+000 0.000000e+000 -1.000000e+000
    outer loop
      vertex 1.133528e+001 -1.291443e+001 0.000000e+000
      vertex 1.133528e+001 -3.914429e+000 0.000000e+000
      vertex 2.062099e+001 -3.914429e+000 0.000000e+000
    endloop
  endfacet
  facet normal 0.000000e+000 0.000000e+000 -1.000000e+000
    outer loop
      vertex 2.062099e+001 -3.914429e+000 0.000000e+000
      vertex 2.062099e+001 -1.291443e+001 0.000000e+000
      vertex 1.133528e+001 -1.291443e+001 0.000000e+000
    endloop
  endfacet
  facet normal 0.000000e+000 0.000000e+000 -1.000000e+000
    outer loop
      vertex 2.062099e+001 -1.291443e+001 0.000000e+000
      vertex 2.062099e+001 -3.914429e+000 0.000000e+000
      vertex 2.990670e+001 -3.914429e+000 0.000000e+000
    endloop
  endfacet
  facet normal 0.000000e+000 0.000000e+000 -1.000000e+000
    outer loop
      vertex 2.990670e+001 -3.914429e+000 0.000000e+000
      vertex 2.990670e+001 -1.291443e+001 0.000000e+000
      vertex 2.062099e+001 -1.291443e+001 0.000000e+000
    endloop
  endfacet
  facet normal 0.000000e+000 0.000000e+000 -1.000000e+000
    outer loop
      vertex 2.990670e+001 -1.291443e+001 0.000000e+000
      vertex 2.990670e+001 -3.914429e+000 0.000000e+000
      vertex 3.919242e+001 -3.914429e+000 0.000000e+000
    endloop
  endfacet
  facet normal 0.000000e+000 0.000000e+000 -1.000000e+000
    outer loop
      vertex 3.919242e+001 -3.914429e+000 0.000000e+000
      vertex 3.919242e+001 -1.291443e+001 0.000000e+000
      vertex 2.990670e+001 -1.291443e+001 0.000000e+000
    endloop
  endfacet
  facet normal 0.000000e+000 0.000000e+000 -1.000000e+000
    outer loop
      vertex -2.580758e+001 -3.914429e+000 0.000000e+000
      vertex -2.580758e+001 5.085571e+000 0.000000e+000
      vertex -1.652187e+001 5.085571e+000 0.000000e+000
    endloop
  endfacet
  facet normal 0.000000e+000 0.000000e+000 -1.000000e+000
    outer loop
      vertex -1.652187e+001 5.085571e+000 0.000000e+000
      vertex -1.652187e+001 -3.914429e+000 0.000000e+000
      vertex -2.580758e+001 -3.914429e+000 0.000000e+000
    endloop
  endfacet
  facet normal 0.000000e+000 0.000000e+000 -1.000000e+000
    outer loop
      vertex -1.652187e+001 -3.914429e+000 0.000000e+000
      vertex -1.652187e+001 5.085571e+000 0.000000e+000
      vertex -7.236151e+000 5.085571e+000 0.000000e+000
    endloop
  endfacet
  facet normal 0.000000e+000 0.000000e+000 -1.000000e+000
    outer loop
      vertex -7.236151e+000 5.085571e+000 0.000000e+000
      vertex -7.236151e+000 -3.914429e+000 0.000000e+000
      vertex -1.652187e+001 -3.914429e+000 0.000000e+000
    endloop
  endfacet
  facet normal 0.000000e+000 0.000000e+000 -1.000000e+000
    outer loop
      vertex -7.236151e+000 -3.914429e+000 0.000000e+000
      vertex -7.236151e+000 5.085571e+000 0.000000e+000
      vertex 2.049563e+000 5.085571e+000 0.000000e+000
    endloop
  endfacet
  facet normal 0.000000e+000 0.000000e+000 -1.000000e+000
    outer loop
      vertex 2.049563e+000 5.085571e+000 0.000000e+000
      vertex 2.049563e+000 -3.914429e+000 0.000000e+000
      vertex -7.236151e+000 -3.914429e+000 0.000000e+000
    endloop
  endfacet
  facet normal 0.000000e+000 0.000000e+000 -1.000000e+000
    outer loop
      vertex 2.049563e+000 -3.914429e+000 0.000000e+000
      vertex 2.049563e+000 5.085571e+000 0.000000e+000
      vertex 1.133528e+001 5.085571e+000 0.000000e+000
    endloop
  endfacet
  facet normal 0.000000e+000 0.000000e+000 -1.000000e+000
    outer loop
      vertex 1.133528e+001 5.085571e+000 0.000000e+000
      vertex 1.133528e+001 -3.914429e+000 0.000000e+000
      vertex 2.049563e+000 -3.914429e+000 0.000000e+000
    endloop
  endfacet
  facet normal 0.000000e+000 0.000000e+000 -1.000000e+000
    outer loop
      vertex 1.133528e+001 -3.914429e+000 0.000000e+000
      vertex 1.133528e+001 5.085571e+000 0.000000e+000
      vertex 2.062099e+001 5.085571e+000 0.000000e+000
    endloop
  endfacet
  facet normal 0.000000e+000 0.000000e+000 -1.000000e+000
    outer loop
      vertex 2.062099e+001 5.085571e+000 0.000000e+000
      vertex 2.062099e+001 -3.914429e+000 0.000000e+000
      vertex 1.133528e+001 -3.914429e+000 0.000000e+000
    endloop
  endfacet
  facet normal 0.000000e+000 0.000000e+000 -1.000000e+000
    outer loop
      vertex 2.062099e+001 -3.914429e+000 0.000000e+000
      vertex 2.062099e+001 5.085571e+000 0.000000e+000
      vertex 2.990670e+001 5.085571e+000 0.000000e+000
    endloop
  endfacet
  facet normal 0.000000e+000 0.000000e+000 -1.000000e+000
    outer loop
      vertex 2.990670e+001 5.085571e+000 0.000000e+000
      vertex 2.990670e+001 -3.914429e+000 0.000000e+000
      vertex 2.062099e+001 -3.914429e+000 0.000000e+000
    endloop
  endfacet
  facet normal 0.000000e+000 0.000000e+000 -1.000000e+000
    outer loop
      vertex 2.990670e+001 -3.914429e+000 0.000000e+000
      vertex 2.990670e+001 5.085571e+000 0.000000e+000
      vertex 3.919242e+001 5.085571e+000 0.000000e+000
    endloop
  endfacet
  facet normal 0.000000e+000 0.000000e+000 -1.000000e+000
    outer loop
      vertex 3.919242e+001 5.085571e+000 0.000000e+000
      vertex 3.919242e+001 -3.914429e+000 0.000000e+000
      vertex 2.990670e+001 -3.914429e+000 0.000000e+000
    endloop
  endfacet
  facet normal 0.000000e+000 0.000000e+000 -1.000000e+000
    outer loop
      vertex -2.580758e+001 5.085571e+000 0.000000e+000
      vertex -2.580758e+001 1.408557e+001 0.000000e+000
      vertex -1.652187e+001 1.408557e+001 0.000000e+000
    endloop
  endfacet
  facet normal 0.000000e+000 0.000000e+000 -1.000000e+000
    outer loop
      vertex -1.652187e+001 1.408557e+001 0.000000e+000
      vertex -1.652187e+001 5.085571e+000 0.000000e+000
      vertex -2.580758e+001 5.085571e+000 0.000000e+000
    endloop
  endfacet
  facet normal 0.000000e+000 0.000000e+000 -1.000000e+000
    outer loop
      vertex -1.652187e+001 5.085571e+000 0.000000e+000
      vertex -1.652187e+001 1.408557e+001 0.000000e+000
      vertex -7.236151e+000 1.408557e+001 0.000000e+000
    endloop
  endfacet
  facet normal 0.000000e+000 0.000000e+000 -1.000000e+000
    outer loop
      vertex -7.236151e+000 1.408557e+001 0.000000e+000
      vertex -7.236151e+000 5.085571e+000 0.000000e+000
      vertex -1.652187e+001 5.085571e+000 0.000000e+000
    endloop
  endfacet
  facet normal 0.000000e+000 0.000000e+000 -1.000000e+000
    outer loop
      vertex -7.236151e+000 5.085571e+000 0.000000e+000
      vertex -7.236151e+000 1.408557e+001 0.000000e+000
      vertex 2.049563e+000 1.408557e+001 0.000000e+000
    endloop
  endfacet
  facet normal 0.000000e+000 0.000000e+000 -1.000000e+000
    outer loop
      vertex 2.049563e+000 1.408557e+001 0.000000e+000
      vertex 2.049563e+000 5.085571e+000 0.000000e+000
      vertex -7.236151e+000 5.085571e+000 0.000000e+000
    endloop
  endfacet
  facet normal 0.000000e+000 0.000000e+000 -1.000000e+000
    outer loop
      vertex 2.049563e+000 5.085571e+000 0.000000e+000
      vertex 2.049563e+000 1.408557e+001 0.000000e+000
      vertex 1.133528e+001 1.408557e+001 0.000000e+000
    endloop
  endfacet
  facet normal 0.000000e+000 0.000000e+000 -1.000000e+000
    outer loop
      vertex 1.133528e+001 1.408557e+001 0.000000e+000
      vertex 1.133528e+001 5.085571e+000 0.000000e+000
      vertex 2.049563e+000 5.085571e+000 0.000000e+000
    endloop
  endfacet
  facet normal 0.000000e+000 0.000000e+000 -1.000000e+000
    outer loop
      vertex 1.133528e+001 5.085571e+000 0.000000e+000
      vertex 1.133528e+001 1.408557e+001 0.000000e+000
      vertex 2.062099e+001 1.408557e+001 0.000000e+000
    endloop
  endfacet
  facet normal 0.000000e+000 0.000000e+000 -1.000000e+000
    outer loop
      vertex 2.062099e+001 1.408557e+001 0.000000e+000
      vertex 2.062099e+001 5.085571e+000 0.000000e+000
      vertex 1.133528e+001 5.085571e+000 0.000000e+000
    endloop
  endfacet
  facet normal 0.000000e+000 0.000000e+000 -1.000000e+000
    outer loop
      vertex 2.062099e+001 5.085571e+000 0.000000e+000
      vertex 2.062099e+001 1.408557e+001 0.000000e+000
      vertex 2.990670e+001 1.408557e+001 0.000000e+000
    endloop
  endfacet
  facet normal 0.000000e+000 0.000000e+000 -1.000000e+000
    outer loop
      vertex 2.990670e+001 1.408557e+001 0.000000e+000
      vertex 2.990670e+001 5.085571e+000 0.000000e+000
      vertex 2.062099e+001 5.085571e+000 0.000000e+000
    endloop
  endfacet
  facet normal 0.000000e+000 0.000000e+000 -1.000000e+000
    outer loop
      vertex 2.990670e+001 5.085571e+000 0.000000e+000
      vertex 2.990670e+001 1.408557e+001 0.000000e+000
      vertex 3.919242e+001 1.408557e+001 0.000000e+000
    endloop
  endfacet
  facet normal 0.000000e+000 0.000000e+000 -1.000000e+000
    outer loop
      vertex 3.919242e+001 1.408557e+001 0.000000e+000
      vertex 3.919242e+001 5.085571e+000 0.000000e+000
      vertex 2.990670e+001 5.085571e+000 0.000000e+000
    endloop
  endfacet
  facet normal 0.000000e+000 0.000000e+000 -1.000000e+000
    outer loop
      vertex -2.580758e+001 1.408557e+001 0.000000e+000
      vertex -2.580758e+001 2.308557e+001 0.000000e+000
      vertex -1.652187e+001 2.308557e+001 0.000000e+000
    endloop
  endfacet
  facet normal 0.000000e+000 0.000000e+000 -1.000000e+000
    outer loop
      vertex -1.652187e+001 2.308557e+001 0.000000e+000
      vertex -1.652187e+001 1.408557e+001 0.000000e+000
      vertex -2.580758e+001 1.408557e+001 0.000000e+000
    endloop
  endfacet
  facet normal 0.000000e+000 0.000000e+000 -1.000000e+000
    outer loop
      vertex -1.652187e+001 1.408557e+001 0.000000e+000
      vertex -1.652187e+001 2.308557e+001 0.000000e+000
      vertex -7.236151e+000 2.308557e+001 0.000000e+000
    endloop
  endfacet
  facet normal 0.000000e+000 0.000000e+000 -1.000000e+000
    outer loop
      vertex -7.236151e+000 2.308557e+001 0.000000e+000
      vertex -7.236151e+000 1.408557e+001 0.000000e+000
      vertex -1.652187e+001 1.408557e+001 0.000000e+000
    endloop
  endfacet
  facet normal 0.000000e+000 0.000000e+000 -1.000000e+000
    outer loop
      vertex -7.236151e+000 1.408557e+001 0.000000e+000
      vertex -7.236151e+000 2.308557e+001 0.000000e+000
      vertex 2.049563e+000 2.308557e+001 0.000000e+000
    endloop
  endfacet
  facet normal 0.000000e+000 0.000000e+000 -1.000000e+000
    outer loop
      vertex 2.049563e+000 2.308557e+001 0.000000e+000
      vertex 2.049563e+000 1.408557e+001 0.000000e+000
      vertex -7.236151e+000 1.408557e+001 0.000000e+000
    endloop
  endfacet
  facet normal 0.000000e+000 0.000000e+000 -1.000000e+000
    outer loop
      vertex 2.049563e+000 1.408557e+001 0.000000e+000
      vertex 2.049563e+000 2.308557e+001 0.000000e+000
      vertex 1.133528e+001 2.308557e+001 0.000000e+000
    endloop
  endfacet
  facet normal 0.000000e+000 0.000000e+000 -1.000000e+000
    outer loop
      vertex 1.133528e+001 2.308557e+001 0.000000e+000
      vertex 1.133528e+001 1.408557e+001 0.000000e+000
      vertex 2.049563e+000 1.408557e+001 0.000000e+000
    endloop
  endfacet
  facet normal 0.000000e+000 0.000000e+000 -1.000000e+000
    outer loop
      vertex 1.133528e+001 1.408557e+001 0.000000e+000
      vertex 1.133528e+001 2.308557e+001 0.000000e+000
      vertex 2.062099e+001 2.308557e+001 0.000000e+000
    endloop
  endfacet
  facet normal 0.000000e+000 0.000000e+000 -1.000000e+000
    outer loop
      vertex 2.062099e+001 2.308557e+001 0.000000e+000
      vertex 2.062099e+001 1.408557e+001 0.000000e+000
      vertex 1.133528e+001 1.408557e+001 0.000000e+000
    endloop
  endfacet
  facet normal 0.000000e+000 0.000000e+000 -1.000000e+000
    outer loop
      vertex 2.062099e+001 1.408557e+001 0.000000e+000
      vertex 2.062099e+001 2.308557e+001 0.000000e+000
      vertex 2.990670e+001 2.308557e+001 0.000000e+000
    endloop
  endfacet
  facet normal 0.000000e+000 0.000000e+000 -1.000000e+000
    outer loop
      vertex 2.990670e+001 2.308557e+001 0.000000e+000
      vertex 2.990670e+001 1.408557e+001 0.000000e+000
      vertex 2.062099e+001 1.408557e+001 0.000000e+000
    endloop
  endfacet
  facet normal 0.000000e+000 0.000000e+000 -1.000000e+000
    outer loop
      vertex 2.990670e+001 1.408557e+001 0.000000e+000
      vertex 2.990670e+001 2.308557e+001 0.000000e+000
      vertex 3.919242e+001 2.308557e+001 0.000000e+000
    endloop
  endfacet
  facet normal 0.000000e+000 0.000000e+000 -1.000000e+000
    outer loop
      vertex 3.919242e+001 2.308557e+001 0.000000e+000
      vertex 3.919242e+001 1.408557e+001 0.000000e+000
      vertex 2.990670e+001 1.408557e+001 0.000000e+000
    endloop
  endfacet
  facet normal 0.000000e+000 0.000000e+000 1.000000e+000
    outer loop
      vertex -2.580758e+001 -2.191443e+001 3.500000e+001
      vertex -1.652187e+001 -2.191443e+001 3.500000e+001
      vertex -1.652187e+001 -1.291443e+001 3.500000e+001
    endloop
  endfacet
  facet normal 0.000000e+000 0.000000e+000 1.000000e+000
    outer loop
      vertex -1.652187e+001 -1.291443e+001 3.500000e+001
      vertex -2.580758e+001 -1.291443e+001 3.500000e+001
      vertex -2.580758e+001 -2.191443e+001 3.500000e+001
    endloop
  endfacet
  facet normal 0.000000e+000 0.000000e+000 1.000000e+000
    outer loop
      vertex -1.652187e+001 -2.191443e+001 3.500000e+001
      vertex -7.236151e+000 -2.191443e+001 3.500000e+001
      vertex -7.236151e+000 -1.291443e+001 3.500000e+001
    endloop
  endfacet
  facet normal 0.000000e+000 0.000000e+000 1.000000e+000
    outer loop
      vertex -7.236151e+000 -1.291443e+001 3.500000e+001
      vertex -1.652187e+001 -1.291443e+001 3.500000e+001
      vertex -1.652187e+001 -2.191443e+001 3.500000e+001
    endloop
  endfacet
  facet normal 0.000000e+000 0.000000e+000 1.000000e+000
    outer loop
      vertex -7.236151e+000 -2.191443e+001 3.500000e+001
      vertex 2.049563e+000 -2.191443e+001 3.500000e+001
      vertex 2.049563e+000 -1.291443e+001 3.500000e+001
    endloop
  endfacet
  facet normal 0.000000e+000 0.000000e+000 1.000000e+000
    outer loop
      vertex 2.049563e+000 -1.291443e+001 3.500000e+001
      vertex -7.236151e+000 -1.291443e+001 3.500000e+001
      vertex -7.236151e+000 -2.191443e+001 3.500000e+001
    endloop
  endfacet
  facet normal 0.000000e+000 0.000000e+000 1.000000e+000
    outer loop
      vertex 2.049563e+000 -2.191443e+001 3.500000e+001
      vertex 1.133528e+001 -2.191443e+001 3.500000e+001
      vertex 1.133528e+001 -1.291443e+001 3.500000e+001
    endloop
  endfacet
  facet normal 0.000000e+000 0.000000e+000 1.000000e+000
    outer loop
      vertex 1.133528e+001 -1.291443e+001 3.500000e+001
      vertex 2.049563e+000 -1.291443e+001 3.500000e+001
      vertex 2.049563e+000 -2.191443e+001 3.500000e+001
    endloop
  endfacet
  facet normal 0.000000e+000 0.000000e+000 1.000000e+000
    outer loop
      vertex 1.133528e+001 -2.191443e+001 3.500000e+001
      vertex 2.062099e+001 -2.191443e+001 3.500000e+001
      vertex 2.062099e+001 -1.291443e+001 3.500000e+001
    endloop
  endfacet
  facet normal 0.000000e+000 0.000000e+000 1.000000e+000
    outer loop
      vertex 2.062099e+001 -1.291443e+001 3.500000e+001
      vertex 1.133528e+001 -1.291443e+001 3.500000e+001
      vertex 1.133528e+001 -2.191443e+001 3.500000e+001
    endloop
  endfacet
  facet normal 0.000000e+000 0.000000e+000 1.000000e+000
    outer loop
      vertex 2.062099e+001 -2.191443e+001 3.500000e+001
      vertex 2.990670e+001 -2.191443e+001 3.500000e+001
      vertex 2.990670e+001 -1.291443e+001 3.500000e+001
    endloop
  endfacet
  facet normal 0.000000e+000 0.000000e+000 1.000000e+000
    outer loop
      vertex 2.990670e+001 -1.291443e+001 3.500000e+001
      vertex 2.062099e+001 -1.291443e+001 3.500000e+001
      vertex 2.062099e+001 -2.191443e+001 3.500000e+001
    endloop
  endfacet
  facet normal 0.000000e+000 0.000000e+000 1.000000e+000
    outer loop
      vertex 2.990670e+001 -2.191443e+001 3.500000e+001
      vertex 3.919242e+001 -2.191443e+001 3.500000e+001
      vertex 3.919242e+001 -1.291443e+001 3.500000e+001
    endloop
  endfacet
  facet normal 0.000000e+000 0.000000e+000 1.000000e+000
    outer loop
      vertex 3.919242e+001 -1.291443e+001 3.500000e+001
      vertex 2.990670e+001 -1.291443e+001 3.500000e+001
      vertex 2.990670e+001 -2.191443e+001 3.500000e+001
    endloop
  endfacet
  facet normal 0.000000e+000 0.000000e+000 1.000000e+000
    outer loop
      vertex -2.580758e+001 -1.291443e+001 3.500000e+001
      vertex -1.652187e+001 -1.291443e+001 3.500000e+001
      vertex -1.652187e+001 -3.914429e+000 3.500000e+001
    endloop
  endfacet
  facet normal 0.000000e+000 0.000000e+000 1.000000e+000
    outer loop
      vertex -1.652187e+001 -3.914429e+000 3.500000e+001
      vertex -2.580758e+001 -3.914429e+000 3.500000e+001
      vertex -2.580758e+001 -1.291443e+001 3.500000e+001
    endloop
  endfacet
  facet normal 0.000000e+000 0.000000e+000 1.000000e+000
    outer loop
      vertex -1.652187e+001 -1.291443e+001 3.500000e+001
      vertex -7.236151e+000 -1.291443e+001 3.500000e+001
      vertex -7.236151e+000 -3.914429e+000 3.500000e+001
    endloop
  endfacet
  facet normal 0.000000e+000 0.000000e+000 1.000000e+000
    outer loop
      vertex -7.236151e+000 -3.914429e+000 3.500000e+001
      vertex -1.652187e+001 -3.914429e+000 3.500000e+001
      vertex -1.652187e+001 -1.291443e+001 3.500000e+001
    endloop
  endfacet
  facet normal 0.000000e+000 0.000000e+000 1.000000e+000
    outer loop
      vertex -7.236151e+000 -1.291443e+001 3.500000e+001
      vertex 2.049563e+000 -1.291443e+001 3.500000e+001
      vertex 2.049563e+000 -3.914429e+000 3.500000e+001
    endloop
  endfacet
  facet normal 0.000000e+000 0.000000e+000 1.000000e+000
    outer loop
      vertex 2.049563e+000 -3.914429e+000 3.500000e+001
      vertex -7.236151e+000 -3.914429e+000 3.500000e+001
      vertex -7.236151e+000 -1.291443e+001 3.500000e+001
    endloop
  endfacet
  facet normal 0.000000e+000 0.000000e+000 1.000000e+000
    outer loop
      vertex 2.049563e+000 -1.291443e+001 3.500000e+001
      vertex 1.133528e+001 -1.291443e+001 3.500000e+001
      vertex 1.133528e+001 -3.914429e+000 3.500000e+001
    endloop
  endfacet
  facet normal 0.000000e+000 0.000000e+000 1.000000e+000
    outer loop
      vertex 1.133528e+001 -3.914429e+000 3.500000e+001
      vertex 2.049563e+000 -3.914429e+000 3.500000e+001
      vertex 2.049563e+000 -1.291443e+001 3.500000e+001
    endloop
  endfacet
  facet normal 0.000000e+000 0.000000e+000 1.000000e+000
    outer loop
      vertex 1.133528e+001 -1.291443e+001 3.500000e+001
      vertex 2.062099e+001 -1.291443e+001 3.500000e+001
      vertex 2.062099e+001 -3.914429e+000 3.500000e+001
    endloop
  endfacet
  facet normal 0.000000e+000 0.000000e+000 1.000000e+000
    outer loop
      vertex 2.062099e+001 -3.914429e+000 3.500000e+001
      vertex 1.133528e+001 -3.914429e+000 3.500000e+001
      vertex 1.133528e+001 -1.291443e+001 3.500000e+001
    endloop
  endfacet
  facet normal 0.000000e+000 0.000000e+000 1.000000e+000
    outer loop
      vertex 2.062099e+001 -1.291443e+001 3.500000e+001
      vertex 2.990670e+001 -1.291443e+001 3.500000e+001
      vertex 2.990670e+001 -3.914429e+000 3.500000e+001
    endloop
  endfacet
  facet normal 0.000000e+000 0.000000e+000 1.000000e+000
    outer loop
      vertex 2.990670e+001 -3.914429e+000 3.500000e+001
      vertex 2.062099e+001 -3.914429e+000 3.500000e+001
      vertex 2.062099e+001 -1.291443e+001 3.500000e+001
    endloop
  endfacet
  facet normal 0.000000e+000 0.000000e+000 1.000000e+000
    outer loop
      vertex 2.990670e+001 -1.291443e+001 3.500000e+001
      vertex 3.919242e+001 -1.291443e+001 3.500000e+001
      vertex 3.919242e+001 -3.914429e+000 3.500000e+001
    endloop
  endfacet
  facet normal 0.000000e+000 0.000000e+000 1.000000e+000
    outer loop
      vertex 3.919242e+001 -3.914429e+000 3.500000e+001
      vertex 2.990670e+001 -3.914429e+000 3.500000e+001
      vertex 2.990670e+001 -1.291443e+001 3.500000e+001
    endloop
  endfacet
  facet normal 0.000000e+000 0.000000e+000 1.000000e+000
    outer loop
      vertex -2.580758e+001 -3.914429e+000 3.500000e+001
      vertex -1.652187e+001 -3.914429e+000 3.500000e+001
      vertex -1.652187e+001 5.085571e+000 3.500000e+001
    endloop
  endfacet
  facet normal 0.000000e+000 0.000000e+000 1.000000e+000
    outer loop
      vertex -1.652187e+001 5.085571e+000 3.500000e+001
      vertex -2.580758e+001 5.085571e+000 3.500000e+001
      vertex -2.580758e+001 -3.914429e+000 3.500000e+001
    endloop
  endfacet
  facet normal 0.000000e+000 0.000000e+000 1.000000e+000
    outer loop
      vertex -1.652187e+001 -3.914429e+000 3.500000e+001
      vertex -7.236151e+000 -3.914429e+000 3.500000e+001
      vertex -7.236151e+000 5.085571e+000 3.500000e+001
    endloop
  endfacet
  facet normal 0.000000e+000 0.000000e+000 1.000000e+000
    outer loop
      vertex -7.236151e+000 5.085571e+000 3.500000e+001
      vertex -1.652187e+001 5.085571e+000 3.500000e+001
      vertex -1.652187e+001 -3.914429e+000 3.500000e+001
    endloop
  endfacet
  facet normal 0.000000e+000 0.000000e+000 1.000000e+000
    outer loop
      vertex -7.236151e+000 -3.914429e+000 3.500000e+001
      vertex 2.049563e+000 -3.914429e+000 3.500000e+001
      vertex 2.049563e+000 5.085571e+000 3.500000e+001
    endloop
  endfacet
  facet normal 0.000000e+000 0.000000e+000 1.000000e+000
    outer loop
      vertex 2.049563e+000 5.085571e+000 3.500000e+001
      vertex -7.236151e+000 5.085571e+000 3.500000e+001
      vertex -7.236151e+000 -3.914429e+000 3.500000e+001
    endloop
  endfacet
  facet normal 0.000000e+000 0.000000e+000 1.000000e+000
    outer loop
      vertex 2.049563e+000 -3.914429e+000 3.500000e+001
      vertex 1.133528e+001 -3.914429e+000 3.500000e+001
      vertex 1.133528e+001 5.085571e+000 3.500000e+001
    endloop
  endfacet
  facet normal 0.000000e+000 0.000000e+000 1.000000e+000
    outer loop
      vertex 1.133528e+001 5.085571e+000 3.500000e+001
      vertex 2.049563e+000 5.085571e+000 3.500000e+001
      vertex 2.049563e+000 -3.914429e+000 3.500000e+001
    endloop
  endfacet
  facet normal 0.000000e+000 0.000000e+000 1.000000e+000
    outer loop
      vertex 1.133528e+001 -3.914429e+000 3.500000e+001
      vertex 2.062099e+001 -3.914429e+000 3.500000e+001
      vertex 2.062099e+001 5.085571e+000 3.500000e+001
    endloop
  endfacet
  facet normal 0.000000e+000 0.000000e+000 1.000000e+000
    outer loop
      vertex 2.062099e+001 5.085571e+000 3.500000e+001
      vertex 1.133528e+001 5.085571e+000 3.500000e+001
      vertex 1.133528e+001 -3.914429e+000 3.500000e+001
    endloop
  endfacet
  facet normal 0.000000e+000 0.000000e+000 1.000000e+000
    outer loop
      vertex 2.062099e+001 -3.914429e+000 3.500000e+001
      vertex 2.990670e+001 -3.914429e+000 3.500000e+001
      vertex 2.990670e+001 5.085571e+000 3.500000e+001
    endloop
  endfacet
  facet normal 0.000000e+000 0.000000e+000 1.000000e+000
    outer loop
      vertex 2.990670e+001 5.085571e+000 3.500000e+001
      vertex 2.062099e+001 5.085571e+000 3.500000e+001
      vertex 2.062099e+001 -3.914429e+000 3.500000e+001
    endloop
  endfacet
  facet normal 0.000000e+000 0.000000e+000 1.000000e+000
    outer loop
      vertex 2.990670e+001 -3.914429e+000 3.500000e+001
      vertex 3.919242e+001 -3.914429e+000 3.500000e+001
      vertex 3.919242e+001 5.085571e+000 3.500000e+001
    endloop
  endfacet
  facet normal 0.000000e+000 0.000000e+000 1.000000e+000
    outer loop
      vertex 3.919242e+001 5.085571e+000 3.500000e+001
      vertex 2.990670e+001 5.085571e+000 3.500000e+001
      vertex 2.990670e+001 -3.914429e+000 3.500000e+001
    endloop
  endfacet
  facet normal 0.000000e+000 0.000000e+000 1.000000e+000
    outer loop
      vertex -2.580758e+001 5.085571e+000 3.500000e+001
      vertex -1.652187e+001 5.085571e+000 3.500000e+001
      vertex -1.652187e+001 1.408557e+001 3.500000e+001
    endloop
  endfacet
  facet normal 0.000000e+000 0.000000e+000 1.000000e+000
    outer loop
      vertex -1.652187e+001 1.408557e+001 3.500000e+001
      vertex -2.580758e+001 1.408557e+001 3.500000e+001
      vertex -2.580758e+001 5.085571e+000 3.500000e+001
    endloop
  endfacet
  facet normal 0.000000e+000 0.000000e+000 1.000000e+000
    outer loop
      vertex -1.652187e+001 5.085571e+000 3.500000e+001
      vertex -7.236151e+000 5.085571e+000 3.500000e+001
      vertex -7.236151e+000 1.408557e+001 3.500000e+001
    endloop
  endfacet
  facet normal 0.000000e+000 0.000000e+000 1.000000e+000
    outer loop
      vertex -7.236151e+000 1.408557e+001 3.500000e+001
      vertex -1.652187e+001 1.408557e+001 3.500000e+001
      vertex -1.652187e+001 5.085571e+000 3.500000e+001
    endloop
  endfacet
  facet normal 0.000000e+000 0.000000e+000 1.000000e+000
    outer loop
      vertex -7.236151e+000 5.085571e+000 3.500000e+001
      vertex 2.049563e+000 5.085571e+000 3.500000e+001
      vertex 2.049563e+000 1.408557e+001 3.500000e+001
    endloop
  endfacet
  facet normal 0.000000e+000 0.000000e+000 1.000000e+000
    outer loop
      vertex 2.049563e+000 1.408557e+001 3.500000e+001
      vertex -7.236151e+000 1.408557e+001 3.500000e+001
      vertex -7.236151e+000 5.085571e+000 3.500000e+001
    endloop
  endfacet
  facet normal 0.000000e+000 0.000000e+000 1.000000e+000
    outer loop
      vertex 2.049563e+000 5.085571e+000 3.500000e+001
      vertex 1.133528e+001 5.085571e+000 3.500000e+001
      vertex 1.133528e+001 1.408557e+001 3.500000e+001
    endloop
  endfacet
  facet normal 0.000000e+000 0.000000e+000 1.000000e+000
    outer loop
      vertex 1.133528e+001 1.408557e+001 3.500000e+001
      vertex 2.049563e+000 1.408557e+001 3.500000e+001
      vertex 2.049563e+000 5.085571e+000 3.500000e+001
    endloop
  endfacet
  facet normal 0.000000e+000 0.000000e+000 1.000000e+000
    outer loop
      vertex 1.133528e+001 5.085571e+000 3.500000e+001
      vertex 2.062099e+001 5.085571e+000 3.500000e+001
      vertex 2.062099e+001 1.408557e+001 3.500000e+001
    endloop
  endfacet
  facet normal 0.000000e+000 0.000000e+000 1.000000e+000
    outer loop
      vertex 2.062099e+001 1.408557e+001 3.500000e+001
      vertex 1.133528e+001 1.408557e+001 3.500000e+001
      vertex 1.133528e+001 5.085571e+000 3.500000e+001
    endloop
  endfacet
  facet normal 0.000000e+000 0.000000e+000 1.000000e+000
    outer loop
      vertex 2.062099e+001 5.085571e+000 3.500000e+001
      vertex 2.990670e+001 5.085571e+000 3.500000e+001
      vertex 2.990670e+001 1.408557e+001 3.500000e+001
    endloop
  endfacet
  facet normal 0.000000e+000 0.000000e+000 1.000000e+000
    outer loop
      vertex 2.990670e+001 1.408557e+001 3.500000e+001
      vertex 2.062099e+001 1.408557e+001 3.500000e+001
      vertex 2.062099e+001 5.085571e+000 3.500000e+001
    endloop
  endfacet
  facet normal 0.000000e+000 0.000000e+000 1.000000e+000
    outer loop
      vertex 2.990670e+001 5.085571e+000 3.500000e+001
      vertex 3.919242e+001 5.085571e+000 3.500000e+001
      vertex 3.919242e+001 1.408557e+001 3.500000e+001
    endloop
  endfacet
  facet normal 0.000000e+000 0.000000e+000 1.000000e+000
    outer loop
      vertex 3.919242e+001 1.408557e+001 3.500000e+001
      vertex 2.990670e+001 1.408557e+001 3.500000e+001
      vertex 2.990670e+001 5.085571e+000 3.500000e+001
    endloop
  endfacet
  facet normal 0.000000e+000 0.000000e+000 1.000000e+000
    outer loop
      vertex -2.580758e+001 1.408557e+001 3.500000e+001
      vertex -1.652187e+001 1.408557e+001 3.500000e+001
      vertex -1.652187e+001 2.308557e+001 3.500000e+001
    endloop
  endfacet
  facet normal 0.000000e+000 0.000000e+000 1.000000e+000
    outer loop
      vertex -1.652187e+001 2.308557e+001 3.500000e+001
      vertex -2.580758e+001 2.308557e+001 3.500000e+001
      vertex -2.580758e+001 1.408557e+001 3.500000e+001
    endloop
  endfacet
  facet normal 0.000000e+000 0.000000e+000 1.000000e+000
    outer loop
      vertex -1.652187e+001 1.408557e+001 3.500000e+001
      vertex -7.236151e+000 1.408557e+001 3.500000e+001
      vertex -7.236151e+000 2.308557e+001 3.500000e+001
    endloop
  endfacet
  facet normal 0.000000e+000 0.000000e+000 1.000000e+000
    outer loop
      vertex -7.236151e+000 2.308557e+001 3.500000e+001
      vertex -1.652187e+001 2.308557e+001 3.500000e+001
      vertex -1.652187e+001 1.408557e+001 3.500000e+001
    endloop
  endfacet
  facet normal 0.000000e+000 0.000000e+000 1.000000e+000
    outer loop
      vertex -7.236151e+000 1.408557e+001 3.500000e+001
      vertex 2.049563e+000 1.408557e+001 3.500000e+001
      vertex 2.049563e+000 2.308557e+001 3.500000e+001
    endloop
  endfacet
  facet normal 0.000000e+000 0.000000e+000 1.000000e+000
    outer loop
      vertex 2.049563e+000 2.308557e+001 3.500000e+001
      vertex -7.236151e+000 2.308557e+001 3.500000e+001
      vertex -7.236151e+000 1.408557e+001 3.500000e+001
    endloop
  endfacet
  facet normal 0.000000e+000 0.000000e+000 1.000000e+000
    outer loop
      vertex 2.049563e+000 1.408557e+001 3.500000e+001
      vertex 1.133528e+001 1.408557e+001 3.500000e+001
      vertex 1.133528e+001 2.308557e+001 3.500000e+001
    endloop
  endfacet
  facet normal 0.000000e+000 0.000000e+000 1.000000e+000
    outer loop
      vertex 1.133528e+001 2.308557e+001 3.500000e+001
      vertex 2.049563e+000 2.308557e+001 3.500000e+001
      vertex 2.049563e+000 1.408557e+001 3.500000e+001
    endloop
  endfacet
  facet normal 0.000000e+000 0.000000e+000 1.000000e+000
    outer loop
      vertex 1.133528e+001 1.408557e+001 3.500000e+001
      vertex 2.062099e+001 1.408557e+001 3.500000e+001
      vertex 2.062099e+001 2.308557e+001 3.500000e+001
    endloop
  endfacet
  facet normal 0.000000e+000 0.000000e+000 1.000000e+000
    outer loop
      vertex 2.062099e+001 2.308557e+001 3.500000e+001
      vertex 1.133528e+001 2.308557e+001 3.500000e+001
      vertex 1.133528e+001 1.408557e+001 3.500000e+001
    endloop
  endfacet
  facet normal 0.000000e+000 0.000000e+000 1.000000e+000
    outer loop
      vertex 2.062099e+001 1.408557e+001 3.500000e+001
      vertex 2.990670e+001 1.408557e+001 3.500000e+001
      vertex 2.990670e+001 2.308557e+001 3.500000e+001
    endloop
  endfacet
  facet normal 0.000000e+000 0.000000e+000 1.000000e+000
    outer loop
      vertex 2.990670e+001 2.308557e+001 3.500000e+001
      vertex 2.062099e+001 2.308557e+001 3.500000e+001
      vertex 2.062099e+001 1.408557e+001 3.500000e+001
    endloop
  endfacet
  facet normal 0.000000e+000 0.000000e+000 1.000000e+000
    outer loop
      vertex 2.990670e+001 1.408557e+001 3.500000e+001
      vertex 3.919242e+001 1.408557e+001 3.500000e+001
      vertex 3.919242e+001 2.308557e+001 3.500000e+001
    endloop
  endfacet
  facet normal 0.000000e+000 0.000000e+000 1.000000e+000
    outer loop
      vertex 3.919242e+001 2.308557e+001 3.500000e+001
      vertex 2.990670e+001 2.308557e+001 3.500000e+001
      vertex 2.990670e+001 1.408557e+001 3.500000e+001
    endloop
  endfacet
  facet normal 0.000000e+000 -1.000000e+000 0.000000e+000
    outer loop
      vertex -2.580758e+001 -2.191443e+001 0.000000e+000
      vertex -1.652187e+001 -2.191443e+001 0.000000e+000
      vertex -1.652187e+001 -2.191443e+001 8.750000e+000
    endloop
  endfacet
  facet normal 0.000000e+000 -1.000000e+000 0.000000e+000
    outer loop
      vertex -1.652187e+001 -2.191443e+001 8.750000e+000
      vertex -2.580758e+001 -2.191443e+001 8.750000e+000
      vertex -2.580758e+001 -2.191443e+001 0.000000e+000
    endloop
  endfacet
  facet normal 0.000000e+000 -1.000000e+000 0.000000e+000
    outer loop
      vertex -1.652187e+001 -2.191443e+001 0.000000e+000
      vertex -7.236151e+000 -2.191443e+001 0.000000e+000
      vertex -7.236151e+000 -2.191443e+001 8.750000e+000
    endloop
  endfacet
  facet normal 0.000000e+000 -1.000000e+000 0.000000e+000
    outer loop
      vertex -7.236151e+000 -2.191443e+001 8.750000e+000
      vertex -1.652187e+001 -2.191443e+001 8.750000e+000
      vertex -1.652187e+001 -2.191443e+001 0.000000e+000
    endloop
  endfacet
  facet normal 0.000000e+000 -1.000000e+000 0.000000e+000
    outer loop
      vertex -7.236151e+000 -2.191443e+001 0.000000e+000
      vertex 2.049563e+000 -2.191443e+001 0.000000e+000
      vertex 2.049563e+000 -2.191443e+001 8.750000e+000
    endloop
  endfacet
  facet normal 0.000000e+000 -1.000000e+000 0.000000e+000
    outer loop
      vertex 2.049563e+000 -2.191443e+001 8.750000e+000
      vertex -7.236151e+000 -2.191443e+001 8.750000e+000
      vertex -7.236151e+000 -2.191443e+001 0.000000e+000
    endloop
  endfacet
  facet normal 0.000000e+000 -1.000000e+000 0.000000e+000
    outer loop
      vertex 2.049563e+000 -2.191443e+001 0.000000e+000
      vertex 1.133528e+001 -2.191443e+001 0.000000e+000
      vertex 1.133528e+001 -2.191443e+001 8.750000e+000
    endloop
  endfacet
  facet normal 0.000000e+000 -1.000000e+000 0.000000e+000
    outer loop
      vertex 1.133528e+001 -2.191443e+001 8.750000e+000
      vertex 2.049563e+000 -2.191443e+001 8.750000e+000
      vertex 2.049563e+000 -2.191443e+001 0.000000e+000
    endloop
  endfacet
  facet normal 0.000000e+000 -1.000000e+000 0.000000e+000
    outer loop
      vertex 1.133528e+001 -2.191443e+001 0.000000e+000
      vertex 2.062099e+001 -2.191443e+001 0.000000e+000
      vertex 2.062099e+001 -2.191443e+001 8.750000e+000
    endloop
  endfacet
  facet normal 0.000000e+000 -1.000000e+000 0.000000e+000
    outer loop
      vertex 2.062099e+001 -2.191443e+001 8.750000e+000
      vertex 1.133528e+001 -2.191443e+001 8.750000e+000
      vertex 1.133528e+001 -2.191443e+001 0.000000e+000
    endloop
  endfacet
  facet normal 0.000000e+000 -1.000000e+000 0.000000e+000
    outer loop
      vertex 2.062099e+001 -2.191443e+001 0.000000e+000
      vertex 2.990670e+001 -2.191443e+001 0.000000e+000
      vertex 2.990670e+001 -2.191443e+001 8.750000e+000
    endloop
  endfacet
  facet normal 0.000000e+000 -1.000000e+000 0.000000e+000
    outer loop
      vertex 2.990670e+001 -2.191443e+001 8.750000e+000
      vertex 2.062099e+001 -2.191443e+001 8.750000e+000
      vertex 2.062099e+001 -2.191443e+001 0.000000e+000
    endloop
  endfacet
  facet normal 0.000000e+000 -1.000000e+000 0.000000e+000
    outer loop
      vertex 2.990670e+001 -2.191443e+001 0.000000e+000
      vertex 3.919242e+001 -2.191443e+001 0.000000e+000
      vertex 3.919242e+001 -2.191443e+001 8.750000e+000
    endloop
  endfacet
  facet normal 0.000000e+000 -1.000000e+000 0.000000e+000
    outer loop
      vertex 3.919242e+001 -2.191443e+001 8.750000e+000
      vertex 2.990670e+001 -2.191443e+001 8.750000e+000
      vertex 2.990670e+001 -2.191443e+001 0.000000e+000
    endloop
  endfacet
  facet normal 0.000000e+000 -1.000000e+000 0.000000e+000
    outer loop
      vertex -2.580758e+001 -2.191443e+001 8.750000e+000
      vertex -1.652187e+001 -2.191443e+001 8.750000e+000
      vertex -1.652187e+001 -2.191443e+001 1.750000e+001
    endloop
  endfacet
  facet normal 0.000000e+000 -1.000000e+000 0.000000e+000
    outer loop
      vertex -1.652187e+001 -2.191443e+001 1.750000e+001
      vertex -2.580758e+001 -2.191443e+001 1.750000e+001
      vertex -2.580758e+001 -2.191443e+001 8.750000e+000
    endloop
  endfacet
  facet normal 0.000000e+000 -1.000000e+000 0.000000e+000
    outer loop
      vertex -1.652187e+001 -2.191443e+001 8.750000e+000
      vertex -7.236151e+000 -2.191443e+001 8.750000e+000
      vertex -7.236151e+000 -2.191443e+001 1.750000e+001
    endloop
  endfacet
  facet normal 0.000000e+000 -1.000000e+000 0.000000e+000
    outer loop
      vertex -7.236151e+000 -2.191443e+001 1.750000e+001
      vertex -1.652187e+001 -2.191443e+001 1.750000e+001
      vertex -1.652187e+001 -2.191443e+001 8.750000e+000
    endloop
  endfacet
  facet normal 0.000000e+000 -1.000000e+000 0.000000e+000
    outer loop
      vertex -7.236151e+000 -2.191443e+001 8.750000e+000
      vertex 2.049563e+000 -2.191443e+001 8.750000e+000
      vertex 2.049563e+000 -2.191443e+001 1.750000e+001
    endloop
  endfacet
  facet normal 0.000000e+000 -1.000000e+000 0.000000e+000
    outer loop
      vertex 2.049563e+000 -2.191443e+001 1.750000e+001
      vertex -7.236151e+000 -2.191443e+001 1.750000e+001
      vertex -7.236151e+000 -2.191443e+001 8.750000e+000
    endloop
  endfacet
  facet normal 0.000000e+000 -1.000000e+000 0.000000e+000
    outer loop
      vertex 2.049563e+000 -2.191443e+001 8.750000e+000
      vertex 1.133528e+001 -2.191443e+001 8.750000e+000
      vertex 1.133528e+001 -2.191443e+001 1.750000e+001
    endloop
  endfacet
  facet normal 0.000000e+000 -1.000000e+000 0.000000e+000
    outer loop
      vertex 1.133528e+001 -2.191443e+001 1.750000e+001
      vertex 2.049563e+000 -2.191443e+001 1.750000e+001
      vertex 2.049563e+000 -2.191443e+001 8.750000e+000
    endloop
  endfacet
  facet normal 0.000000e+000 -1.000000e+000 0.000000e+000
    outer loop
      vertex 1.133528e+001 -2.191443e+001 8.750000e+000
      vertex 2.062099e+001 -2.191443e+001 8.750000e+000
      vertex 2.062099e+001 -2.191443e+001 1.750000e+001
    endloop
  endfacet
  facet normal 0.000000e+000 -1.000000e+000 0.000000e+000
    outer loop
      vertex 2.062099e+001 -2.191443e+001 1.750000e+001
      vertex 1.133528e+001 -2.191443e+001 1.750000e+001
      vertex 1.133528e+001 -2.191443e+001 8.750000e+000
    endloop
  endfacet
  facet normal 0.000000e+000 -1.000000e+000 0.000000e+000
    outer loop
      vertex 2.062099e+001 -2.191443e+001 8.750000e+000
      vertex 2.990670e+001 -2.191443e+001 8.750000e+000
      vertex 2.990670e+001 -2.191443e+001 1.750000e+001
    endloop
  endfacet
  facet normal 0.000000e+000 -1.000000e+000 0.000000e+000
    outer loop
      vertex 2.990670e+001 -2.191443e+001 1.750000e+001
      vertex 2.062099e+001 -2.191443e+001 1.750000e+001
      vertex 2.062099e+001 -2.191443e+001 8.750000e+000
    endloop
  endfacet
  facet normal 0.000000e+000 -1.000000e+000 0.000000e+000
    outer loop
      vertex 2.990670e+001 -2.191443e+001 8.750000e+000
      vertex 3.919242e+001 -2.191443e+001 8.750000e+000
      vertex 3.919242e+001 -2.191443e+001 1.750000e+001
    endloop
  endfacet
  facet normal 0.000000e+000 -1.000000e+000 0.000000e+000
    outer loop
      vertex 3.919242e+001 -2.191443e+001 1.750000e+001
      vertex 2.990670e+001 -2.191443e+001 1.750000e+001
      vertex 2.990670e+001 -2.191443e+001 8.750000e+000
    endloop
  endfacet
  facet normal 0.000000e+000 -1.000000e+000 0.000000e+000
    outer loop
      vertex -2.580758e+001 -2.191443e+001 1.750000e+001
      vertex -1.652187e+001 -2.191443e+001 1.750000e+001
      vertex -1.652187e+001 -2.191443e+001 2.625000e+001
    endloop
  endfacet
  facet normal 0.000000e+000 -1.000000e+000 0.000000e+000
    outer loop
      vertex -1.652187e+001 -2.191443e+001 2.625000e+001
      vertex -2.580758e+001 -2.191443e+001 2.625000e+001
      vertex -2.580758e+001 -2.191443e+001 1.750000e+001
    endloop
  endfacet
  facet normal 0.000000e+000 -1.000000e+000 0.000000e+000
    outer loop
      vertex -1.652187e+001 -2.191443e+001 1.750000e+001
      vertex -7.236151e+000 -2.191443e+001 1.750000e+001
      vertex -7.236151e+000 -2.191443e+001 2.625000e+001
    endloop
  endfacet
  facet normal 0.000000e+000 -1.000000e+000 0.000000e+000
    outer loop
      vertex -7.236151e+000 -2.191443e+001 2.625000e+001
      vertex -1.652187e+001 -2.191443e+001 2.625000e+001
      vertex -1.652187e+001 -2.191443e+001 1.750000e+001
    endloop
  endfacet
  facet normal 0.000000e+000 -1.000000e+000 0.000000e+000
    outer loop
      vertex -7.236151e+000 -2.191443e+001 1.750000e+001
      vertex 2.049563e+000 -2.191443e+001 1.750000e+001
      vertex 2.049563e+000 -2.191443e+001 2.625000e+001
    endloop
  endfacet
  facet normal 0.000000e+000 -1.000000e+000 0.000000e+000
    outer loop
      vertex 2.049563e+000 -2.191443e+001 2.625000e+001
      vertex -7.236151e+000 -2.191443e+001 2.625000e+001
      vertex -7.236151e+000 -2.191443e+001 1.750000e+001
    endloop
  endfacet
  facet normal 0.000000e+000 -1.000000e+000 0.000000e+000
    outer loop
      vertex 2.049563e+000 -2.191443e+001 1.750000e+001
      vertex 1.133528e+001 -2.191443e+001 1.750000e+001
      vertex 1.133528e+001 -2.191443e+001 2.625000e+001
    endloop
  endfacet
  facet normal 0.000000e+000 -1.000000e+000 0.000000e+000
    outer loop
      vertex 1.133528e+001 -2.191443e+001 2.625000e+001
      vertex 2.049563e+000 -2.191443e+001 2.625000e+001
      vertex 2.049563e+000 -2.191443e+001 1.750000e+001
    endloop
  endfacet
  facet normal 0.000000e+000 -1.000000e+000 0.000000e+000
    outer loop
      vertex 1.133528e+001 -2.191443e+001 1.750000e+001
      vertex 2.062099e+001 -2.191443e+001 1.750000e+001
      vertex 2.062099e+001 -2.191443e+001 2.625000e+001
    endloop
  endfacet
  facet normal 0.000000e+000 -1.000000e+000 0.000000e+000
    outer loop
      vertex 2.062099e+001 -2.191443e+001 2.625000e+001
      vertex 1.133528e+001 -2.191443e+001 2.625000e+001
      vertex 1.133528e+001 -2.191443e+001 1.750000e+001
    endloop
  endfacet
  facet normal 0.000000e+000 -1.000000e+000 0.000000e+000
    outer loop
      vertex 2.062099e+001 -2.191443e+001 1.750000e+001
      vertex 2.990670e+001 -2.191443e+001 1.750000e+001
      vertex 2.990670e+001 -2.191443e+001 2.625000e+001
    endloop
  endfacet
  facet normal 0.000000e+000 -1.000000e+000 0.000000e+000
    outer loop
      vertex 2.990670e+001 -2.191443e+001 2.625000e+001
      vertex 2.062099e+001 -2.191443e+001 2.625000e+001
      vertex 2.062099e+001 -2.191443e+001 1.750000e+001
    endloop
  endfacet
  facet normal 0.000000e+000 -1.000000e+000 0.000000e+000
    outer loop
      vertex 2.990670e+001 -2.191443e+001 1.750000e+001
      vertex 3.919242e+001 -2.191443e+001 1.750000e+001
      vertex 3.919242e+001 -2.191443e+001 2.625000e+001
    endloop
  endfacet
  facet normal 0.000000e+000 -1.000000e+000 0.000000e+000
    outer loop
      vertex 3.919242e+001 -2.191443e+001 2.625000e+001
      vertex 2.990670e+001 -2.191443e+001 2.625000e+001
      vertex 2.990670e+001 -2.191443e+001 1.750000e+001
    endloop
  endfacet
  facet normal 0.000000e+000 -1.000000e+000 0.000000e+000
    outer loop
      vertex -2.580758e+001 -2.191443e+001 2.625000e+001
      vertex -1.652187e+001 -2.191443e+001 2.625000e+001
      vertex -1.652187e+001 -2.191443e+001 3.500000e+001
    endloop
  endfacet
  facet normal 0.000000e+000 -1.000000e+000 0.000000e+000
    outer loop
      vertex -1.652187e+001 -2.191443e+001 3.500000e+001
      vertex -2.580758e+001 -2.191443e+001 3.500000e+001
      vertex -2.580758e+001 -2.191443e+001 2.625000e+001
    endloop
  endfacet
  facet normal 0.000000e+000 -1.000000e+000 0.000000e+000
    outer loop
      vertex -1.652187e+001 -2.191443e+001 2.625000e+001
      vertex -7.236151e+000 -2.191443e+001 2.625000e+001
      vertex -7.236151e+000 -2.191443e+001 3.500000e+001
    endloop
  endfacet
  facet normal 0.000000e+000 -1.000000e+000 0.000000e+000
    outer loop
      vertex -7.236151e+000 -2.191443e+001 3.500000e+001
      vertex -1.652187e+001 -2.191443e+001 3.500000e+001
      vertex -1.652187e+001 -2.191443e+001 2.625000e+001
    endloop
  endfacet
  facet normal 0.000000e+000 -1.000000e+000 0.000000e+000
    outer loop
      vertex -7.236151e+000 -2.191443e+001 2.625000e+001
      vertex 2.049563e+000 -2.191443e+001 2.625000e+001
      vertex 2.049563e+000 -2.191443e+001 3.500000e+001
    endloop
  endfacet
  facet normal 0.000000e+000 -1.000000e+000 0.000000e+000
    outer loop
      vertex 2.049563e+000 -2.191443e+001 3.500000e+001
      vertex -7.236151e+000 -2.191443e+001 3.500000e+001
      vertex -7.236151e+000 -2.191443e+001 2.625000e+001
    endloop
  endfacet
  facet normal 0.000000e+000 -1.000000e+000 0.000000e+000
    outer loop
      vertex 2.049563e+000 -2.191443e+001 2.625000e+001
      vertex 1.133528e+001 -2.191443e+001 2.625000e+001
      vertex 1.133528e+001 -2.191443e+001 3.500000e+001
    endloop
  endfacet
  facet normal 0.000000e+000 -1.000000e+000 0.000000e+000
    outer loop
      vertex 1.133528e+001 -2.191443e+001 3.500000e+001
      vertex 2.049563e+000 -2.191443e+001 3.500000e+001
      vertex 2.049563e+000 -2.191443e+001 2.625000e+001
    endloop
  endfacet
  facet normal 0.000000e+000 -1.000000e+000 0.000000e+000
    outer loop
      vertex 1.133528e+001 -2.191443e+001 2.625000e+001
      vertex 2.062099e+001 -2.191443e+001 2.625000e+001
      vertex 2.062099e+001 -2.191443e+001 3.500000e+001
    endloop
  endfacet
  facet normal 0.000000e+000 -1.000000e+000 0.000000e+000
    outer loop
      vertex 2.062099e+001 -2.191443e+001 3.500000e+001
      vertex 1.133528e+001 -2.191443e+001 3.500000e+001
      vertex 1.133528e+001 -2.191443e+001 2.625000e+001
    endloop
  endfacet
  facet normal 0.000000e+000 -1.000000e+000 0.000000e+000
    outer loop
      vertex 2.062099e+001 -2.191443e+001 2.625000e+001
      vertex 2.990670e+001 -2.191443e+001 2.625000e+001
      vertex 2.990670e+001 -2.191443e+001 3.500000e+001
    endloop
  endfacet
  facet normal 0.000000e+000 -1.000000e+000 0.000000e+000
    outer loop
      vertex 2.990670e+001 -2.191443e+001 3.500000e+001
      vertex 2.062099e+001 -2.191443e+001 3.500000e+001
      vertex 2.062099e+001 -2.191443e+001 2.625000e+001
    endloop
  endfacet
  facet normal 0.000000e+000 -1.000000e+000 0.000000e+000
    outer loop
      vertex 2.990670e+001 -2.191443e+001 2.625000e+001
      vertex 3.919242e+001 -2.191443e+001 2.625000e+001
      vertex 3.919242e+001 -2.191443e+001 3.500000e+001
    endloop
  endfacet
  facet normal 0.000000e+000 -1.000000e+000 0.000000e+000
    outer loop
      vertex 3.919242e+001 -2.191443e+001 3.500000e+001
      vertex 2.990670e+001 -2.191443e+001 3.500000e+001
      vertex 2.990670e+001 -2.191443e+001 2.625000e+001
    endloop
  endfacet
  facet normal 1.000000e+000 0.000000e+000 -4.359654e-007
    outer loop
      vertex 3.919242e+001 -2.191443e+001 0.000000e+000
      vertex 3.919242e+001 -1.291443e+001 0.000000e+000
      vertex 3.919242e+001 -1.291443e+001 8.750000e+000
    endloop
  endfacet
  facet normal 1.000000e+000 0.000000e+000 -4.359654e-007
    outer loop
      vertex 3.919242e+001 -1.291443e+001 8.750000e+000
      vertex 3.919242e+001 -2.191443e+001 8.750000e+000
      vertex 3.919242e+001 -2.191443e+001 0.000000e+000
    endloop
  endfacet
  facet normal 1.000000e+000 0.000000e+000 -4.359654e-007
    outer loop
      vertex 3.919242e+001 -1.291443e+001 0.000000e+000
      vertex 3.919242e+001 -3.914429e+000 0.000000e+000
      vertex 3.919242e+001 -3.914429e+000 8.750000e+000
    endloop
  endfacet
  facet normal 1.000000e+000 0.000000e+000 -4.359654e-007
    outer loop
      vertex 3.919242e+001 -3.914429e+000 8.750000e+000
      vertex 3.919242e+001 -1.291443e+001 8.750000e+000
      vertex 3.919242e+001 -1.291443e+001 0.000000e+000
    endloop
  endfacet
  facet normal 1.000000e+000 0.000000e+000 -4.359654e-007
    outer loop
      vertex 3.919242e+001 -3.914429e+000 0.000000e+000
      vertex 3.919242e+001 5.085571e+000 0.000000e+000
      vertex 3.919242e+001 5.085571e+000 8.750000e+000
    endloop
  endfacet
  facet normal 1.000000e+000 0.000000e+000 -4.359654e-007
    outer loop
      vertex 3.919242e+001 5.085571e+000 8.750000e+000
      vertex 3.919242e+001 -3.914429e+000 8.750000e+000
      vertex 3.919242e+001 -3.914429e+000 0.000000e+000
    endloop
  endfacet
  facet normal 1.000000e+000 0.000000e+000 -4.359654e-007
    outer loop
      vertex 3.919242e+001 5.085571e+000 0.000000e+000
      vertex 3.919242e+001 1.408557e+001 0.000000e+000
      vertex 3.919242e+001 1.408557e+001 8.750000e+000
    endloop
  endfacet
  facet normal 1.000000e+000 0.000000e+000 -4.359654e-007
    outer loop
      vertex 3.919242e+001 1.408557e+001 8.750000e+000
      vertex 3.919242e+001 5.085571e+000 8.750000e+000
      vertex 3.919242e+001 5.085571e+000 0.000000e+000
    endloop
  endfacet
  facet normal 1.000000e+000 0.000000e+000 -4.359654e-007
    outer loop
      vertex 3.919242e+001 1.408557e+001 0.000000e+000
      vertex 3.919242e+001 2.308557e+001 0.000000e+000
      vertex 3.919242e+001 2.308557e+001 8.750000e+000
    endloop
  endfacet
  facet normal 1.000000e+000 0.000000e+000 -4.359654e-007
    outer loop
      vertex 3.919242e+001 2.308557e+001 8.750000e+000
      vertex 3.919242e+001 1.408557e+001 8.750000e+000
      vertex 3.919242e+001 1.408557e+001 0.000000e+000
    endloop
  endfacet
  facet normal 1.000000e+000 0.000000e+000 0.000000e+000
    outer loop
      vertex 3.919242e+001 -2.191443e+001 8.750000e+000
      vertex 3.919242e+001 -1.291443e+001 8.750000e+000
      vertex 3.919242e+001 -1.291443e+001 1.750000e+001
    endloop
  endfacet
  facet normal 1.000000e+000 0.000000e+000 0.000000e+000
    outer loop
      vertex 3.919242e+001 -1.291443e+001 1.750000e+001
      vertex 3.919242e+001 -2.191443e+001 1.750000e+001
      vertex 3.919242e+001 -2.191443e+001 8.750000e+000
    endloop
  endfacet
  facet normal 1.000000e+000 0.000000e+000 0.000000e+000
    outer loop
      vertex 3.919242e+001 -1.291443e+001 8.750000e+000
      vertex 3.919242e+001 -3.914429e+000 8.750000e+000
      vertex 3.919242e+001 -3.914429e+000 1.750000e+001
    endloop
  endfacet
  facet normal 1.000000e+000 0.000000e+000 0.000000e+000
    outer loop
      vertex 3.919242e+001 -3.914429e+000 1.750000e+001
      vertex 3.919242e+001 -1.291443e+001 1.750000e+001
      vertex 3.919242e+001 -1.291443e+001 8.750000e+000
    endloop
  endfacet
  facet normal 1.000000e+000 0.000000e+000 0.000000e+000
    outer loop
      vertex 3.919242e+001 -3.914429e+000 8.750000e+000
      vertex 3.919242e+001 5.085571e+000 8.750000e+000
      vertex 3.919242e+001 5.085571e+000 1.750000e+001
    endloop
  endfacet
  facet normal 1.000000e+000 0.000000e+000 0.000000e+000
    outer loop
      vertex 3.919242e+001 5.085571e+000 1.750000e+001
      vertex 3.919242e+001 -3.914429e+000 1.750000e+001
      vertex 3.919242e+001 -3.914429e+000 8.750000e+000
    endloop
  endfacet
  facet normal 1.000000e+000 0.000000e+000 0.000000e+000
    outer loop
      vertex 3.919242e+001 5.085571e+000 8.750000e+000
      vertex 3.919242e+001 1.408557e+001 8.750000e+000
      vertex 3.919242e+001 1.408557e+001 1.750000e+001
    endloop
  endfacet
  facet normal 1.000000e+000 0.000000e+000 0.000000e+000
    outer loop
      vertex 3.919242e+001 1.408557e+001 1.750000e+001
      vertex 3.919242e+001 5.085571e+000 1.750000e+001
      vertex 3.919242e+001 5.085571e+000 8.750000e+000
    endloop
  endfacet
  facet normal 1.000000e+000 0.000000e+000 0.000000e+000
    outer loop
      vertex 3.919242e+001 1.408557e+001 8.750000e+000
      vertex 3.919242e+001 2.308557e+001 8.750000e+000
      vertex 3.919242e+001 2.308557e+001 1.750000e+001
    endloop
  endfacet
  facet normal 1.000000e+000 0.000000e+000 0.000000e+000
    outer loop
      vertex 3.919242e+001 2.308557e+001 1.750000e+001
      vertex 3.919242e+001 1.408557e+001 1.750000e+001
      vertex 3.919242e+001 1.408557e+001 8.750000e+000
    endloop
  endfacet
  facet normal 1.000000e+000 0.000000e+000 0.000000e+000
    outer loop
      vertex 3.919242e+001 -2.191443e+001 1.750000e+001
      vertex 3.919242e+001 -1.291443e+001 1.750000e+001
      vertex 3.919242e+001 -1.291443e+001 2.625000e+001
    endloop
  endfacet
  facet normal 1.000000e+000 0.000000e+000 0.000000e+000
    outer loop
      vertex 3.919242e+001 -1.291443e+001 2.625000e+001
      vertex 3.919242e+001 -2.191443e+001 2.625000e+001
      vertex 3.919242e+001 -2.191443e+001 1.750000e+001
    endloop
  endfacet
  facet normal 1.000000e+000 0.000000e+000 0.000000e+000
    outer loop
      vertex 3.919242e+001 -1.291443e+001 1.750000e+001
      vertex 3.919242e+001 -3.914429e+000 1.750000e+001
      vertex 3.919242e+001 -3.914429e+000 2.625000e+001
    endloop
  endfacet
  facet normal 1.000000e+000 0.000000e+000 0.000000e+000
    outer loop
      vertex 3.919242e+001 -3.914429e+000 2.625000e+001
      vertex 3.919242e+001 -1.291443e+001 2.625000e+001
      vertex 3.919242e+001 -1.291443e+001 1.750000e+001
    endloop
  endfacet
  facet normal 1.000000e+000 0.000000e+000 0.000000e+000
    outer loop
      vertex 3.919242e+001 -3.914429e+000 1.750000e+001
      vertex 3.919242e+001 5.085571e+000 1.750000e+001
      vertex 3.919242e+001 5.085571e+000 2.625000e+001
    endloop
  endfacet
  facet normal 1.000000e+000 0.000000e+000 0.000000e+000
    outer loop
      vertex 3.919242e+001 5.085571e+000 2.625000e+001
      vertex 3.919242e+001 -3.914429e+000 2.625000e+001
      vertex 3.919242e+001 -3.914429e+000 1.750000e+001
    endloop
  endfacet
  facet normal 1.000000e+000 0.000000e+000 0.000000e+000
    outer loop
      vertex 3.919242e+001 5.085571e+000 1.750000e+001
      vertex 3.919242e+001 1.408557e+001 1.750000e+001
      vertex 3.919242e+001 1.408557e+001 2.625000e+001
    endloop
  endfacet
  facet normal 1.000000e+000 0.000000e+000 0.000000e+000
    outer loop
      vertex 3.919242e+001 1.408557e+001 2.625000e+001
      vertex 3.919242e+001 5.085571e+000 2.625000e+001
      vertex 3.919242e+001 5.085571e+000 1.750000e+001
    endloop
  endfacet
  facet normal 1.000000e+000 0.000000e+000 0.000000e+000
    outer loop
      vertex 3.919242e+001 1.408557e+001 1.750000e+001
      vertex 3.919242e+001 2.308557e+001 1.750000e+001
      vertex 3.919242e+001 2.308557e+001 2.625000e+001
    endloop
  endfacet
  facet normal 1.000000e+000 0.000000e+000 0.000000e+000
    outer loop
      vertex 3.919242e+001 2.308557e+001 2.625000e+001
      vertex 3.919242e+001 1.408557e+001 2.625000e+001
      vertex 3.919242e+001 1.408557e+001 1.750000e+001
    endloop
  endfacet
  facet normal 1.000000e+000 0.000000e+000 4.359654e-007
    outer loop
      vertex 3.919242e+001 -2.191443e+001 2.625000e+001
      vertex 3.919242e+001 -1.291443e+001 2.625000e+001
      vertex 3.919242e+001 -1.291443e+001 3.500000e+001
    endloop
  endfacet
  facet normal 1.000000e+000 0.000000e+000 4.359654e-007
    outer loop
      vertex 3.919242e+001 -1.291443e+001 3.500000e+001
      vertex 3.919242e+001 -2.191443e+001 3.500000e+001
      vertex 3.919242e+001 -2.191443e+001 2.625000e+001
    endloop
  endfacet
  facet normal 1.000000e+000 0.000000e+000 4.359654e-007
    outer loop
      vertex 3.919242e+001 -1.291443e+001 2.625000e+001
      vertex 3.919242e+001 -3.914429e+000 2.625000e+001
      vertex 3.919242e+001 -3.914429e+000 3.500000e+001
    endloop
  endfacet
  facet normal 1.000000e+000 0.000000e+000 4.359654e-007
    outer loop
      vertex 3.919242e+001 -3.914429e+000 3.500000e+001
      vertex 3.919242e+001 -1.291443e+001 3.500000e+001
      vertex 3.919242e+001 -1.291443e+001 2.625000e+001
    endloop
  endfacet
  facet normal 1.000000e+000 0.000000e+000 4.359654e-007
    outer loop
      vertex 3.919242e+001 -3.914429e+000 2.625000e+001
      vertex 3.919242e+001 5.085571e+000 2.625000e+001
      vertex 3.919242e+001 5.085571e+000 3.500000e+001
    endloop
  endfacet
  facet normal 1.000000e+000 0.000000e+000 4.359654e-007
    outer loop
      vertex 3.919242e+001 5.085571e+000 3.500000e+001
      vertex 3.919242e+001 -3.914429e+000 3.500000e+001
      vertex 3.919242e+001 -3.914429e+000 2.625000e+001
    endloop
  endfacet
  facet normal 1.000000e+000 0.000000e+000 4.359654e-007
    outer loop
      vertex 3.919242e+001 5.085571e+000 2.625000e+001
      vertex 3.919242e+001 1.408557e+001 2.625000e+001
      vertex 3.919242e+001 1.408557e+001 3.500000e+001
    endloop
  endfacet
  facet normal 1.000000e+000 0.000000e+000 4.359654e-007
    outer loop
      vertex 3.919242e+001 1.408557e+001 3.500000e+001
      vertex 3.919242e+001 5.085571e+000 3.500000e+001
      vertex 3.919242e+001 5.085571e+000 2.625000e+001
    endloop
  endfacet
  facet normal 1.000000e+000 0.000000e+000 4.359654e-007
    outer loop
      vertex 3.919242e+001 1.408557e+001 2.625000e+001
      vertex 3.919242e+001 2.308557e+001 2.625000e+001
      vertex 3.919242e+001 2.308557e+001 3.500000e+001
    endloop
  endfacet
  facet normal 1.000000e+000 0.000000e+000 4.359654e-007
    outer loop
      vertex 3.919242e+001 2.308557e+001 3.500000e+001
      vertex 3.919242e+001 1.408557e+001 3.500000e+001
      vertex 3.919242e+001 1.408557e+001 2.625000e+001
    endloop
  endfacet
  facet normal 0.000000e+000 1.000000e+000 0.000000e+000
    outer loop
      vertex 3.919242e+001 2.308557e+001 0.000000e+000
      vertex 2.990670e+001 2.308557e+001 0.000000e+000
      vertex 2.990671e+001 2.308557e+001 8.750000e+000
    endloop
  endfacet
  facet normal 0.000000e+000 1.000000e+000 0.000000e+000
    outer loop
      vertex 2.990671e+001 2.308557e+001 8.750000e+000
      vertex 3.919242e+001 2.308557e+001 8.750000e+000
      vertex 3.919242e+001 2.308557e+001 0.000000e+000
    endloop
  endfacet
  facet normal 0.000000e+000 1.000000e+000 0.000000e+000
    outer loop
      vertex 2.990670e+001 2.308557e+001 0.000000e+000
      vertex 2.062099e+001 2.308557e+001 0.000000e+000
      vertex 2.062099e+001 2.308557e+001 8.750000e+000
    endloop
  endfacet
  facet normal 0.000000e+000 1.000000e+000 0.000000e+000
    outer loop
      vertex 2.062099e+001 2.308557e+001 8.750000e+000
      vertex 2.990671e+001 2.308557e+001 8.750000e+000
      vertex 2.990670e+001 2.308557e+001 0.000000e+000
    endloop
  endfacet
  facet normal 0.000000e+000 1.000000e+000 0.000000e+000
    outer loop
      vertex 2.062099e+001 2.308557e+001 0.000000e+000
      vertex 1.133528e+001 2.308557e+001 0.000000e+000
      vertex 1.133528e+001 2.308557e+001 8.750000e+000
    endloop
  endfacet
  facet normal 0.000000e+000 1.000000e+000 0.000000e+000
    outer loop
      vertex 1.133528e+001 2.308557e+001 8.750000e+000
      vertex 2.062099e+001 2.308557e+001 8.750000e+000
      vertex 2.062099e+001 2.308557e+001 0.000000e+000
    endloop
  endfacet
  facet normal 0.000000e+000 1.000000e+000 0.000000e+000
    outer loop
      vertex 1.133528e+001 2.308557e+001 0.000000e+000
      vertex 2.049563e+000 2.308557e+001 0.000000e+000
      vertex 2.049566e+000 2.308557e+001 8.750000e+000
    endloop
  endfacet
  facet normal 0.000000e+000 1.000000e+000 0.000000e+000
    outer loop
      vertex 2.049566e+000 2.308557e+001 8.750000e+000
      vertex 1.133528e+001 2.308557e+001 8.750000e+000
      vertex 1.133528e+001 2.308557e+001 0.000000e+000
    endloop
  endfacet
  facet normal 0.000000e+000 1.000000e+000 0.000000e+000
    outer loop
      vertex 2.049563e+000 2.308557e+001 0.000000e+000
      vertex -7.236151e+000 2.308557e+001 0.000000e+000
      vertex -7.236148e+000 2.308557e+001 8.750000e+000
    endloop
  endfacet
  facet normal 0.000000e+000 1.000000e+000 0.000000e+000
    outer loop
      vertex -7.236148e+000 2.308557e+001 8.750000e+000
      vertex 2.049566e+000 2.308557e+001 8.750000e+000
      vertex 2.049563e+000 2.308557e+001 0.000000e+000
    endloop
  endfacet
  facet normal 0.000000e+000 1.000000e+000 0.000000e+000
    outer loop
      vertex -7.236151e+000 2.308557e+001 0.000000e+000
      vertex -1.652187e+001 2.308557e+001 0.000000e+000
      vertex -1.652186e+001 2.308557e+001 8.750000e+000
    endloop
  endfacet
  facet normal 0.000000e+000 1.000000e+000 0.000000e+000
    outer loop
      vertex -1.652186e+001 2.308557e+001 8.750000e+000
      vertex -7.236148e+000 2.308557e+001 8.750000e+000
      vertex -7.236151e+000 2.308557e+001 0.000000e+000
    endloop
  endfacet
  facet normal 0.000000e+000 1.000000e+000 0.000000e+000
    outer loop
      vertex -1.652187e+001 2.308557e+001 0.000000e+000
      vertex -2.580758e+001 2.308557e+001 0.000000e+000
      vertex -2.580758e+001 2.308557e+001 8.750000e+000
    endloop
  endfacet
  facet normal 0.000000e+000 1.000000e+000 0.000000e+000
    outer loop
      vertex -2.580758e+001 2.308557e+001 8.750000e+000
      vertex -1.652186e+001 2.308557e+001 8.750000e+000
      vertex -1.652187e+001 2.308557e+001 0.000000e+000
    endloop
  endfacet
  facet normal 0.000000e+000 1.000000e+000 0.000000e+000
    outer loop
      vertex 3.919242e+001 2.308557e+001 8.750000e+000
      vertex 2.990671e+001 2.308557e+001 8.750000e+000
      vertex 2.990671e+001 2.308557e+001 1.750000e+001
    endloop
  endfacet
  facet normal 0.000000e+000 1.000000e+000 0.000000e+000
    outer loop
      vertex 2.990671e+001 2.308557e+001 1.750000e+001
      vertex 3.919242e+001 2.308557e+001 1.750000e+001
      vertex 3.919242e+001 2.308557e+001 8.750000e+000
    endloop
  endfacet
  facet normal 0.000000e+000 1.000000e+000 0.000000e+000
    outer loop
      vertex 2.990671e+001 2.308557e+001 8.750000e+000
      vertex 2.062099e+001 2.308557e+001 8.750000e+000
      vertex 2.062099e+001 2.308557e+001 1.750000e+001
    endloop
  endfacet
  facet normal 0.000000e+000 1.000000e+000 0.000000e+000
    outer loop
      vertex 2.062099e+001 2.308557e+001 1.750000e+001
      vertex 2.990671e+001 2.308557e+001 1.750000e+001
      vertex 2.990671e+001 2.308557e+001 8.750000e+000
    endloop
  endfacet
  facet normal 0.000000e+000 1.000000e+000 0.000000e+000
    outer loop
      vertex 2.062099e+001 2.308557e+001 8.750000e+000
      vertex 1.133528e+001 2.308557e+001 8.750000e+000
      vertex 1.133528e+001 2.308557e+001 1.750000e+001
    endloop
  endfacet
  facet normal 0.000000e+000 1.000000e+000 0.000000e+000
    outer loop
      vertex 1.133528e+001 2.308557e+001 1.750000e+001
      vertex 2.062099e+001 2.308557e+001 1.750000e+001
      vertex 2.062099e+001 2.308557e+001 8.750000e+000
    endloop
  endfacet
  facet normal 0.000000e+000 1.000000e+000 0.000000e+000
    outer loop
      vertex 1.133528e+001 2.308557e+001 8.750000e+000
      vertex 2.049566e+000 2.308557e+001 8.750000e+000
      vertex 2.049566e+000 2.308557e+001 1.750000e+001
    endloop
  endfacet
  facet normal 0.000000e+000 1.000000e+000 0.000000e+000
    outer loop
      vertex 2.049566e+000 2.308557e+001 1.750000e+001
      vertex 1.133528e+001 2.308557e+001 1.750000e+001
      vertex 1.133528e+001 2.308557e+001 8.750000e+000
    endloop
  endfacet
  facet normal 0.000000e+000 1.000000e+000 0.000000e+000
    outer loop
      vertex 2.049566e+000 2.308557e+001 8.750000e+000
      vertex -7.236148e+000 2.308557e+001 8.750000e+000
      vertex -7.236148e+000 2.308557e+001 1.750000e+001
    endloop
  endfacet
  facet normal 0.000000e+000 1.000000e+000 0.000000e+000
    outer loop
      vertex -7.236148e+000 2.308557e+001 1.750000e+001
      vertex 2.049566e+000 2.308557e+001 1.750000e+001
      vertex 2.049566e+000 2.308557e+001 8.750000e+000
    endloop
  endfacet
  facet normal 0.000000e+000 1.000000e+000 0.000000e+000
    outer loop
      vertex -7.236148e+000 2.308557e+001 8.750000e+000
      vertex -1.652186e+001 2.308557e+001 8.750000e+000
      vertex -1.652186e+001 2.308557e+001 1.750000e+001
    endloop
  endfacet
  facet normal 0.000000e+000 1.000000e+000 0.000000e+000
    outer loop
      vertex -1.652186e+001 2.308557e+001 1.750000e+001
      vertex -7.236148e+000 2.308557e+001 1.750000e+001
      vertex -7.236148e+000 2.308557e+001 8.750000e+000
    endloop
  endfacet
  facet normal 0.000000e+000 1.000000e+000 0.000000e+000
    outer loop
      vertex -1.652186e+001 2.308557e+001 8.750000e+000
      vertex -2.580758e+001 2.308557e+001 8.750000e+000
      vertex -2.580758e+001 2.308557e+001 1.750000e+001
    endloop
  endfacet
  facet normal 0.000000e+000 1.000000e+000 0.000000e+000
    outer loop
      vertex -2.580758e+001 2.308557e+001 1.750000e+001
      vertex -1.652186e+001 2.308557e+001 1.750000e+001
      vertex -1.652186e+001 2.308557e+001 8.750000e+000
    endloop
  endfacet
  facet normal 0.000000e+000 1.000000e+000 0.000000e+000
    outer loop
      vertex 3.919242e+001 2.308557e+001 1.750000e+001
      vertex 2.990671e+001 2.308557e+001 1.750000e+001
      vertex 2.990671e+001 2.308557e+001 2.625000e+001
    endloop
  endfacet
  facet normal 0.000000e+000 1.000000e+000 0.000000e+000
    outer loop
      vertex 2.990671e+001 2.308557e+001 2.625000e+001
      vertex 3.919242e+001 2.308557e+001 2.625000e+001
      vertex 3.919242e+001 2.308557e+001 1.750000e+001
    endloop
  endfacet
  facet normal 0.000000e+000 1.000000e+000 0.000000e+000
    outer loop
      vertex 2.990671e+001 2.308557e+001 1.750000e+001
      vertex 2.062099e+001 2.308557e+001 1.750000e+001
      vertex 2.062099e+001 2.308557e+001 2.625000e+001
    endloop
  endfacet
  facet normal 0.000000e+000 1.000000e+000 0.000000e+000
    outer loop
      vertex 2.062099e+001 2.308557e+001 2.625000e+001
      vertex 2.990671e+001 2.308557e+001 2.625000e+001
      vertex 2.990671e+001 2.308557e+001 1.750000e+001
    endloop
  endfacet
  facet normal 0.000000e+000 1.000000e+000 0.000000e+000
    outer loop
      vertex 2.062099e+001 2.308557e+001 1.750000e+001
      vertex 1.133528e+001 2.308557e+001 1.750000e+001
      vertex 1.133528e+001 2.308557e+001 2.625000e+001
    endloop
  endfacet
  facet normal 0.000000e+000 1.000000e+000 0.000000e+000
    outer loop
      vertex 1.133528e+001 2.308557e+001 2.625000e+001
      vertex 2.062099e+001 2.308557e+001 2.625000e+001
      vertex 2.062099e+001 2.308557e+001 1.750000e+001
    endloop
  endfacet
  facet normal 0.000000e+000 1.000000e+000 0.000000e+000
    outer loop
      vertex 1.133528e+001 2.308557e+001 1.750000e+001
      vertex 2.049566e+000 2.308557e+001 1.750000e+001
      vertex 2.049566e+000 2.308557e+001 2.625000e+001
    endloop
  endfacet
  facet normal 0.000000e+000 1.000000e+000 0.000000e+000
    outer loop
      vertex 2.049566e+000 2.308557e+001 2.625000e+001
      vertex 1.133528e+001 2.308557e+001 2.625000e+001
      vertex 1.133528e+001 2.308557e+001 1.750000e+001
    endloop
  endfacet
  facet normal 0.000000e+000 1.000000e+000 0.000000e+000
    outer loop
      vertex 2.049566e+000 2.308557e+001 1.750000e+001
      vertex -7.236148e+000 2.308557e+001 1.750000e+001
      vertex -7.236148e+000 2.308557e+001 2.625000e+001
    endloop
  endfacet
  facet normal 0.000000e+000 1.000000e+000 0.000000e+000
    outer loop
      vertex -7.236148e+000 2.308557e+001 2.625000e+001
      vertex 2.049566e+000 2.308557e+001 2.625000e+001
      vertex 2.049566e+000 2.308557e+001 1.750000e+001
    endloop
  endfacet
  facet normal 0.000000e+000 1.000000e+000 0.000000e+000
    outer loop
      vertex -7.236148e+000 2.308557e+001 1.750000e+001
      vertex -1.652186e+001 2.308557e+001 1.750000e+001
      vertex -1.652186e+001 2.308557e+001 2.625000e+001
    endloop
  endfacet
  facet normal 0.000000e+000 1.000000e+000 0.000000e+000
    outer loop
      vertex -1.652186e+001 2.308557e+001 2.625000e+001
      vertex -7.236148e+000 2.308557e+001 2.625000e+001
      vertex -7.236148e+000 2.308557e+001 1.750000e+001
    endloop
  endfacet
  facet normal 0.000000e+000 1.000000e+000 0.000000e+000
    outer loop
      vertex -1.652186e+001 2.308557e+001 1.750000e+001
      vertex -2.580758e+001 2.308557e+001 1.750000e+001
      vertex -2.580758e+001 2.308557e+001 2.625000e+001
    endloop
  endfacet
  facet normal 0.000000e+000 1.000000e+000 0.000000e+000
    outer loop
      vertex -2.580758e+001 2.308557e+001 2.625000e+001
      vertex -1.652186e+001 2.308557e+001 2.625000e+001
      vertex -1.652186e+001 2.308557e+001 1.750000e+001
    endloop
  endfacet
  facet normal 0.000000e+000 1.000000e+000 0.000000e+000
    outer loop
      vertex 3.919242e+001 2.308557e+001 2.625000e+001
      vertex 2.990671e+001 2.308557e+001 2.625000e+001
      vertex 2.990670e+001 2.308557e+001 3.500000e+001
    endloop
  endfacet
  facet normal 0.000000e+000 1.000000e+000 0.000000e+000
    outer loop
      vertex 2.990670e+001 2.308557e+001 3.500000e+001
      vertex 3.919242e+001 2.308557e+001 3.500000e+001
      vertex 3.919242e+001 2.308557e+001 2.625000e+001
    endloop
  endfacet
  facet normal 0.000000e+000 1.000000e+000 0.000000e+000
    outer loop
      vertex 2.990671e+001 2.308557e+001 2.625000e+001
      vertex 2.062099e+001 2.308557e+001 2.625000e+001
      vertex 2.062099e+001 2.308557e+001 3.500000e+001
    endloop
  endfacet
  facet normal 0.000000e+000 1.000000e+000 0.000000e+000
    outer loop
      vertex 2.062099e+001 2.308557e+001 3.500000e+001
      vertex 2.990670e+001 2.308557e+001 3.500000e+001
      vertex 2.990671e+001 2.308557e+001 2.625000e+001
    endloop
  endfacet
  facet normal 0.000000e+000 1.000000e+000 0.000000e+000
    outer loop
      vertex 2.062099e+001 2.308557e+001 2.625000e+001
      vertex 1.133528e+001 2.308557e+001 2.625000e+001
      vertex 1.133528e+001 2.308557e+001 3.500000e+001
    endloop
  endfacet
  facet normal 0.000000e+000 1.000000e+000 0.000000e+000
    outer loop
      vertex 1.133528e+001 2.308557e+001 3.500000e+001
      vertex 2.062099e+001 2.308557e+001 3.500000e+001
      vertex 2.062099e+001 2.308557e+001 2.625000e+001
    endloop
  endfacet
  facet normal 0.000000e+000 1.000000e+000 0.000000e+000
    outer loop
      vertex 1.133528e+001 2.308557e+001 2.625000e+001
      vertex 2.049566e+000 2.308557e+001 2.625000e+001
      vertex 2.049563e+000 2.308557e+001 3.500000e+001
    endloop
  endfacet
  facet normal 0.000000e+000 1.000000e+000 0.000000e+000
    outer loop
      vertex 2.049563e+000 2.308557e+001 3.500000e+001
      vertex 1.133528e+001 2.308557e+001 3.500000e+001
      vertex 1.133528e+001 2.308557e+001 2.625000e+001
    endloop
  endfacet
  facet normal 0.000000e+000 1.000000e+000 0.000000e+000
    outer loop
      vertex 2.049566e+000 2.308557e+001 2.625000e+001
      vertex -7.236148e+000 2.308557e+001 2.625000e+001
      vertex -7.236151e+000 2.308557e+001 3.500000e+001
    endloop
  endfacet
  facet normal 0.000000e+000 1.000000e+000 0.000000e+000
    outer loop
      vertex -7.236151e+000 2.308557e+001 3.500000e+001
      vertex 2.049563e+000 2.308557e+001 3.500000e+001
      vertex 2.049566e+000 2.308557e+001 2.625000e+001
    endloop
  endfacet
  facet normal 0.000000e+000 1.000000e+000 0.000000e+000
    outer loop
      vertex -7.236148e+000 2.308557e+001 2.625000e+001
      vertex -1.652186e+001 2.308557e+001 2.625000e+001
      vertex -1.652187e+001 2.308557e+001 3.500000e+001
    endloop
  endfacet
  facet normal 0.000000e+000 1.000000e+000 0.000000e+000
    outer loop
      vertex -1.652187e+001 2.308557e+001 3.500000e+001
      vertex -7.236151e+000 2.308557e+001 3.500000e+001
      vertex -7.236148e+000 2.308557e+001 2.625000e+001
    endloop
  endfacet
  facet normal 0.000000e+000 1.000000e+000 0.000000e+000
    outer loop
      vertex -1.652186e+001 2.308557e+001 2.625000e+001
      vertex -2.580758e+001 2.308557e+001 2.625000e+001
      vertex -2.580758e+001 2.308557e+001 3.500000e+001
    endloop
  endfacet
  facet normal 0.000000e+000 1.000000e+000 0.000000e+000
    outer loop
      vertex -2.580758e+001 2.308557e+001 3.500000e+001
      vertex -1.652187e+001 2.308557e+001 3.500000e+001
      vertex -1.652186e+001 2.308557e+001 2.625000e+001
    endloop
  endfacet
  facet normal -1.000000e+000 0.000000e+000 0.000000e+000
    outer loop
      vertex -2.580758e+001 2.308557e+001 0.000000e+000
      vertex -2.580758e+001 1.408557e+001 0.000000e+000
      vertex -2.580758e+001 1.408557e+001 8.750000e+000
    endloop
  endfacet
  facet normal -1.000000e+000 0.000000e+000 0.000000e+000
    outer loop
      vertex -2.580758e+001 1.408557e+001 8.750000e+000
      vertex -2.580758e+001 2.308557e+001 8.750000e+000
      vertex -2.580758e+001 2.308557e+001 0.000000e+000
    endloop
  endfacet
  facet normal -1.000000e+000 0.000000e+000 0.000000e+000
    outer loop
      vertex -2.580758e+001 1.408557e+001 0.000000e+000
      vertex -2.580758e+001 5.085571e+000 0.000000e+000
      vertex -2.580758e+001 5.085571e+000 8.750000e+000
    endloop
  endfacet
  facet normal -1.000000e+000 0.000000e+000 0.000000e+000
    outer loop
      vertex -2.580758e+001 5.085571e+000 8.750000e+000
      vertex -2.580758e+001 1.408557e+001 8.750000e+000
      vertex -2.580758e+001 1.408557e+001 0.000000e+000
    endloop
  endfacet
  facet normal -1.000000e+000 0.000000e+000 0.000000e+000
    outer loop
      vertex -2.580758e+001 5.085571e+000 0.000000e+000
      vertex -2.580758e+001 -3.914429e+000 0.000000e+000
      vertex -2.580758e+001 -3.914429e+000 8.750000e+000
    endloop
  endfacet
  facet normal -1.000000e+000 0.000000e+000 0.000000e+000
    outer loop
      vertex -2.580758e+001 -3.914429e+000 8.750000e+000
      vertex -2.580758e+001 5.085571e+000 8.750000e+000
      vertex -2.580758e+001 5.085571e+000 0.000000e+000
    endloop
  endfacet
  facet normal -1.000000e+000 0.000000e+000 0.000000e+000
    outer loop
      vertex -2.580758e+001 -3.914429e+000 0.000000e+000
      vertex -2.580758e+001 -1.291443e+001 0.000000e+000
      vertex -2.580758e+001 -1.291443e+001 8.750000e+000
    endloop
  endfacet
  facet normal -1.000000e+000 0.000000e+000 0.000000e+000
    outer loop
      vertex -2.580758e+001 -1.291443e+001 8.750000e+000
      vertex -2.580758e+001 -3.914429e+000 8.750000e+000
      vertex -2.580758e+001 -3.914429e+000 0.000000e+000
    endloop
  endfacet
  facet normal -1.000000e+000 0.000000e+000 0.000000e+000
    outer loop
      vertex -2.580758e+001 -1.291443e+001 0.000000e+000
      vertex -2.580758e+001 -2.191443e+001 0.000000e+000
      vertex -2.580758e+001 -2.191443e+001 8.750000e+000
    endloop
  endfacet
  facet normal -1.000000e+000 0.000000e+000 0.000000e+000
    outer loop
      vertex -2.580758e+001 -2.191443e+001 8.750000e+000
      vertex -2.580758e+001 -1.291443e+001 8.750000e+000
      vertex -2.580758e+001 -1.291443e+001 0.000000e+000
    endloop
  endfacet
  facet normal -1.000000e+000 0.000000e+000 0.000000e+000
    outer loop
      vertex -2.580758e+001 2.308557e+001 8.750000e+000
      vertex -2.580758e+001 1.408557e+001 8.750000e+000
      vertex -2.580758e+001 1.408557e+001 1.750000e+001
    endloop
  endfacet
  facet normal -1.000000e+000 0.000000e+000 0.000000e+000
    outer loop
      vertex -2.580758e+001 1.408557e+001 1.750000e+001
      vertex -2.580758e+001 2.308557e+001 1.750000e+001
      vertex -2.580758e+001 2.308557e+001 8.750000e+000
    endloop
  endfacet
  facet normal -1.000000e+000 0.000000e+000 0.000000e+000
    outer loop
      vertex -2.580758e+001 1.408557e+001 8.750000e+000
      vertex -2.580758e+001 5.085571e+000 8.750000e+000
      vertex -2.580758e+001 5.085571e+000 1.750000e+001
    endloop
  endfacet
  facet normal -1.000000e+000 0.000000e+000 0.000000e+000
    outer loop
      vertex -2.580758e+001 5.085571e+000 1.750000e+001
      vertex -2.580758e+001 1.408557e+001 1.750000e+001
      vertex -2.580758e+001 1.408557e+001 8.750000e+000
    endloop
  endfacet
  facet normal -1.000000e+000 0.000000e+000 0.000000e+000
    outer loop
      vertex -2.580758e+001 5.085571e+000 8.750000e+000
      vertex -2.580758e+001 -3.914429e+000 8.750000e+000
      vertex -2.580758e+001 -3.914429e+000 1.750000e+001
    endloop
  endfacet
  facet normal -1.000000e+000 0.000000e+000 0.000000e+000
    outer loop
      vertex -2.580758e+001 -3.914429e+000 1.750000e+001
      vertex -2.580758e+001 5.085571e+000 1.750000e+001
      vertex -2.580758e+001 5.085571e+000 8.750000e+000
    endloop
  endfacet
  facet normal -1.000000e+000 0.000000e+000 0.000000e+000
    outer loop
      vertex -2.580758e+001 -3.914429e+000 8.750000e+000
      vertex -2.580758e+001 -1.291443e+001 8.750000e+000
      vertex -2.580758e+001 -1.291443e+001 1.750000e+001
    endloop
  endfacet
  facet normal -1.000000e+000 0.000000e+000 0.000000e+000
    outer loop
      vertex -2.580758e+001 -1.291443e+001 1.750000e+001
      vertex -2.580758e+001 -3.914429e+000 1.750000e+001
      vertex -2.580758e+001 -3.914429e+000 8.750000e+000
    endloop
  endfacet
  facet normal -1.000000e+000 0.000000e+000 0.000000e+000
    outer loop
      vertex -2.580758e+001 -1.291443e+001 8.750000e+000
      vertex -2.580758e+001 -2.191443e+001 8.750000e+000
      vertex -2.580758e+001 -2.191443e+001 1.750000e+001
    endloop
  endfacet
  facet normal -1.000000e+000 0.000000e+000 0.000000e+000
    outer loop
      vertex -2.580758e+001 -2.191443e+001 1.750000e+001
      vertex -2.580758e+001 -1.291443e+001 1.750000e+001
      vertex -2.580758e+001 -1.291443e+001 8.750000e+000
    endloop
  endfacet
  facet normal -1.000000e+000 0.000000e+000 0.000000e+000
    outer loop
      vertex -2.580758e+001 2.308557e+001 1.750000e+001
      vertex -2.580758e+001 1.408557e+001 1.750000e+001
      vertex -2.580758e+001 1.408557e+001 2.625000e+001
    endloop
  endfacet
  facet normal -1.000000e+000 0.000000e+000 0.000000e+000
    outer loop
      vertex -2.580758e+001 1.408557e+001 2.625000e+001
      vertex -2.580758e+001 2.308557e+001 2.625000e+001
      vertex -2.580758e+001 2.308557e+001 1.750000e+001
    endloop
  endfacet
  facet normal -1.000000e+000 0.000000e+000 0.000000e+000
    outer loop
      vertex -2.580758e+001 1.408557e+001 1.750000e+001
      vertex -2.580758e+001 5.085571e+000 1.750000e+001
      vertex -2.580758e+001 5.085571e+000 2.625000e+001
    endloop
  endfacet
  facet normal -1.000000e+000 0.000000e+000 0.000000e+000
    outer loop
      vertex -2.580758e+001 5.085571e+000 2.625000e+001
      vertex -2.580758e+001 1.408557e+001 2.625000e+001
      vertex -2.580758e+001 1.408557e+001 1.750000e+001
    endloop
  endfacet
  facet normal -1.000000e+000 0.000000e+000 0.000000e+000
    outer loop
      vertex -2.580758e+001 5.085571e+000 1.750000e+001
      vertex -2.580758e+001 -3.914429e+000 1.750000e+001
      vertex -2.580758e+001 -3.914429e+000 2.625000e+001
    endloop
  endfacet
  facet normal -1.000000e+000 0.000000e+000 0.000000e+000
    outer loop
      vertex -2.580758e+001 -3.914429e+000 2.625000e+001
      vertex -2.580758e+001 5.085571e+000 2.625000e+001
      vertex -2.580758e+001 5.085571e+000 1.750000e+001
    endloop
  endfacet
  facet normal -1.000000e+000 0.000000e+000 0.000000e+000
    outer loop
      vertex -2.580758e+001 -3.914429e+000 1.750000e+001
      vertex -2.580758e+001 -1.291443e+001 1.750000e+001
      vertex -2.580758e+001 -1.291443e+001 2.625000e+001
    endloop
  endfacet
  facet normal -1.000000e+000 0.000000e+000 0.000000e+000
    outer loop
      vertex -2.580758e+001 -1.291443e+001 2.625000e+001
      vertex -2.580758e+001 -3.914429e+000 2.625000e+001
      vertex -2.580758e+001 -3.914429e+000 1.750000e+001
    endloop
  endfacet
  facet normal -1.000000e+000 0.000000e+000 0.000000e+000
    outer loop
      vertex -2.580758e+001 -1.291443e+001 1.750000e+001
      vertex -2.580758e+001 -2.191443e+001 1.750000e+001
      vertex -2.580758e+001 -2.191443e+001 2.625000e+001
    endloop
  endfacet
  facet normal -1.000000e+000 0.000000e+000 0.000000e+000
    outer loop
      vertex -2.580758e+001 -2.191443e+001 2.625000e+001
      vertex -2.580758e+001 -1.291443e+001 2.625000e+001
      vertex -2.580758e+001 -1.291443e+001 1.750000e+001
    endloop
  endfacet
  facet normal -1.000000e+000 0.000000e+000 0.000000e+000
    outer loop
      vertex -2.580758e+001 2.308557e+001 2.625000e+001
      vertex -2.580758e+001 1.408557e+001 2.625000e+001
      vertex -2.580758e+001 1.408557e+001 3.500000e+001
    endloop
  endfacet
  facet normal -1.000000e+000 0.000000e+000 0.000000e+000
    outer loop
      vertex -2.580758e+001 1.408557e+001 3.500000e+001
      vertex -2.580758e+001 2.308557e+001 3.500000e+001
      vertex -2.580758e+001 2.308557e+001 2.625000e+001
    endloop
  endfacet
  facet normal -1.000000e+000 0.000000e+000 0.000000e+000
    outer loop
      vertex -2.580758e+001 1.408557e+001 2.625000e+001
      vertex -2.580758e+001 5.085571e+000 2.625000e+001
      vertex -2.580758e+001 5.085571e+000 3.500000e+001
    endloop
  endfacet
  facet normal -1.000000e+000 0.000000e+000 0.000000e+000
    outer loop
      vertex -2.580758e+001 5.085571e+000 3.500000e+001
      vertex -2.580758e+001 1.408557e+001 3.500000e+001
      vertex -2.580758e+001 1.408557e+001 2.625000e+001
    endloop
  endfacet
  facet normal -1.000000e+000 0.000000e+000 0.000000e+000
    outer loop
      vertex -2.580758e+001 5.085571e+000 2.625000e+001
      vertex -2.580758e+001 -3.914429e+000 2.625000e+001
      vertex -2.580758e+001 -3.914429e+000 3.500000e+001
    endloop
  endfacet
  facet normal -1.000000e+000 0.000000e+000 0.000000e+000
    outer loop
      vertex -2.580758e+001 -3.914429e+000 3.500000e+001
      vertex -2.580758e+001 5.085571e+000 3.500000e+001
      vertex -2.580758e+001 5.085571e+000 2.625000e+001
    endloop
  endfacet
  facet normal -1.000000e+000 0.000000e+000 0.000000e+000
    outer loop
      vertex -2.580758e+001 -3.914429e+000 2.625000e+001
      vertex -2.580758e+001 -1.291443e+001 2.625000e+001
      vertex -2.580758e+001 -1.291443e+001 3.500000e+001
    endloop
  endfacet
  facet normal -1.000000e+000 0.000000e+000 0.000000e+000
    outer loop
      vertex -2.580758e+001 -1.291443e+001 3.500000e+001
      vertex -2.580758e+001 -3.914429e+000 3.500000e+001
      vertex -2.580758e+001 -3.914429e+000 2.625000e+001
    endloop
  endfacet
  facet normal -1.000000e+000 0.000000e+000 0.000000e+000
    outer loop
      vertex -2.580758e+001 -1.291443e+001 2.625000e+001
      vertex -2.580758e+001 -2.191443e+001 2.625000e+001
      vertex -2.580758e+001 -2.191443e+001 3.500000e+001
    endloop
  endfacet
  facet normal -1.000000e+000 0.000000e+000 0.000000e+000
    outer loop
      vertex -2.580758e+001 -2.191443e+001 3.500000e+001
      vertex -2.580758e+001 -1.291443e+001 3.500000e+001
      vertex -2.580758e+001 -1.291443e+001 2.625000e+001
    endloop
  endfacet
endsolid box
